<?xml version="1.0" encoding="UTF-8"?>
<svg width="3010px" height="4638px" viewBox="0 0 3010 4638" version="1.1" xmlns="http://www.w3.org/2000/svg" xmlns:xlink="http://www.w3.org/1999/xlink">
    <!-- Generator: Sketch 47 (45396) - http://www.bohemiancoding.com/sketch -->
    <title>book-cover@1x</title>
    <desc>Created with Sketch.</desc>
    <defs>
        <rect id="path-1" x="50.6" y="50.1" width="2908.5" height="4537.4"></rect>
        <polygon id="path-3" points="0.12135257 933.188407 933.546387 933.188407 933.546387 0.439930996 0.12135257 0.439930996"></polygon>
        <linearGradient x1="-408.263352%" y1="-177.42005%" x2="-320.602198%" y2="-133.916907%" id="linearGradient-5">
            <stop stop-color="#FFFFFF" offset="0%"></stop>
            <stop stop-color="#C4C4C4" offset="43.91%"></stop>
            <stop stop-color="#F8F8F8" offset="100%"></stop>
        </linearGradient>
    </defs>
    <g id="Page-1" stroke="none" stroke-width="1" fill="none" fill-rule="evenodd">
        <g id="cover-svg">
            <rect id="Rectangle-path-Copy" stroke="#110000" stroke-width="100" fill="#FFFFFF" fill-rule="nonzero" x="50.6" y="50.1" width="2908.5" height="4537.4"></rect>
            <mask id="mask-2" fill="white">
                <use xlink:href="#path-1"></use>
            </mask>
            <g id="Mask" fill-rule="nonzero"></g>
            <g id="Bicycle" mask="url(#mask-2)">
                <g transform="translate(2560.000000, 2245.500000) scale(-1, 1) translate(-2560.000000, -2245.500000) translate(1364.000000, 1491.000000)">
                    <polygon id="Fill-1" fill="#D1D1D1" fill-rule="nonzero" points="2298.05438 894.474024 2293.82804 884.273395 1943.25231 1024.73946 2083.73627 674.225545 2073.53801 670 1924.98402 1017.17388 1776.42573 670 1766.23178 674.225545 1906.71573 1024.73946 1556.14001 884.273395 1551.90937 894.474024 1899.14443 1043.0043 1551.90937 1191.52598 1556.14001 1201.7309 1906.71573 1061.26914 1766.23178 1411.77875 1776.42573 1416 1924.98402 1068.83472 2073.53801 1416 2083.73627 1411.77875 1943.25231 1061.26914 2293.82804 1201.7309 2298.05438 1191.52598 1950.81071 1043.0043"></polygon>
                    <path d="M1239.75303,1196.86712 C1238.63359,1200.66929 1234.65955,1202.8302 1230.87927,1201.69994 L1100.83411,1162.82085 C1097.05814,1161.6906 1094.90536,1157.69356 1096.02911,1153.89573 L1097.13994,1150.13254 C1098.268,1146.3347 1102.24203,1144.16946 1106.0137,1145.29972 L1236.06317,1184.1788 C1239.83914,1185.31339 1241.99192,1189.30609 1240.86817,1193.10393 L1239.75303,1196.86712 Z" id="Fill-2" fill="#CACBCA" fill-rule="nonzero"></path>
                    <path d="M1351.3716,1205.40513 C1351.3716,1208.49225 1348.19613,1211 1344.2803,1211 L1240.12756,1211 C1236.20744,1211 1233.03625,1208.49225 1233.03625,1205.40513 L1233.03625,1186.59064 C1233.03625,1183.50775 1236.20744,1181 1240.12756,1181 L1344.2803,1181 C1348.19613,1181 1351.3716,1183.50775 1351.3716,1186.59064 L1351.3716,1205.40513 Z" id="Fill-4" fill="#656565" fill-rule="nonzero"></path>
                    <path d="M1291.30476,1206 C1285.56172,1206 1280.91239,1201.29506 1280.91239,1195.5021 C1280.91239,1189.70494 1285.56172,1185 1291.30476,1185 C1297.03949,1185 1301.68882,1189.70494 1301.68882,1195.5021 C1301.68882,1201.29506 1297.03949,1206 1291.30476,1206 Z" id="Fill-6" fill="#656565" fill-rule="nonzero"></path>
                    <polygon id="Fill-12" fill="#F58434" fill-rule="nonzero" points="1639.72608 505 1077.66465 1102.68829 1089.68543 1131 1114.69431 1116.36268 1665.7281 534.317622"></polygon>
                    <path d="M746.145015,267.51902 L761.688615,306.775279 L796.311374,298.781651 L843.370728,447.148352 C843.370728,447.148352 862.012763,452.474579 876.223565,436.487324 L830.051315,292.563432 C830.051315,292.563432 820.284603,267.797768 791.875856,272.184828 L781.804871,251 L746.145015,267.51902 Z" id="Fill-14" fill="#D1D1D1" fill-rule="nonzero"></path>
                    <path d="M890.129985,226.956821 C900.738627,227.558789 910.403991,230.158778 926.05206,226.833012 C926.05206,226.833012 951.929738,224.181792 934.080687,201.187472 C934.080687,201.187472 915.344353,170.12422 859.131042,179.905131 L834.140649,183.495592 C834.140649,183.495592 748.483296,192.341532 686.015926,183.495592 C686.015926,183.495592 628.915332,171.114692 608.387201,192.341532 C608.387201,192.341532 594.104515,210.917152 619.090601,223.298052 L703.864977,271.058442 C703.864977,271.058442 737.771281,279.182874 791.314126,247.701233 C791.314126,247.701233 819.310948,235.486835 848.104602,229.757466 C848.104602,229.757466 855.560371,225.001493 890.129985,226.956821" id="Fill-16" fill="#644633" fill-rule="nonzero"></path>
                    <path d="M1046.04834,1041.28682 C1046.04834,1041.28682 1065.39909,1121.99335 1051.1851,1130 L1087.60121,1121.99335 C1087.60121,1121.99335 1070.03418,1097.06277 1066.83121,1037 L1046.04834,1041.28682 Z" id="Fill-18" fill="#D1D1D1" fill-rule="nonzero"></path>
                    <path d="M1469.35919,903 L1448.93051,896.752541 C1479.40382,797.059602 1542.30953,707.47689 1626.07783,644.516773 C1712.69025,579.412583 1815.89908,545 1924.54697,545 C2082.53731,545 2232.62254,621.21126 2326.0574,748.871674 L2308.82514,761.4869 C2219.39868,639.309125 2075.74493,566.363387 1924.54697,566.363387 C1713.82016,566.363387 1530.89439,701.646215 1469.35919,903" id="Fill-20" fill="#F58434" fill-rule="nonzero"></path>
                    <g id="Group-24" stroke-width="1" fill="none" fill-rule="evenodd" transform="translate(1457.963746, 575.000000)">
                        <g id="Fill-22-Clipped">
                            <mask id="mask-4" fill="white">
                                <use xlink:href="#path-3"></use>
                            </mask>
                            <g id="path-1"></g>
                            <path d="M466.83172,28.9225388 C225.207995,28.9225388 28.6248169,225.357577 28.6248169,466.813095 C28.6248169,708.264317 225.207995,904.707948 466.83172,904.707948 C708.464045,904.707948 905.042923,708.264317 905.042923,466.813095 C905.042923,225.357577 708.464045,28.9225388 466.83172,28.9225388 M466.83172,933.190556 C209.483576,933.190556 0.12135257,723.972932 0.12135257,466.813095 C0.12135257,209.653258 209.483576,0.439930996 466.83172,0.439930996 C724.184163,0.439930996 933.546387,209.653258 933.546387,466.813095 C933.546387,723.972932 724.184163,933.190556 466.83172,933.190556" id="Fill-22" fill="#656565" fill-rule="nonzero" mask="url(#mask-4)"></path>
                        </g>
                    </g>
                    <path d="M1924.52591,614.798954 C1688.53738,614.798954 1496.55064,806.661713 1496.55064,1042.50215 C1496.55064,1278.33829 1688.53738,1470.20534 1924.52591,1470.20534 C2160.51445,1470.20534 2352.50549,1278.33829 2352.50549,1042.50215 C2352.50549,806.661713 2160.51445,614.798954 1924.52591,614.798954 M1924.52591,1488 C1678.721,1488 1478.74018,1288.14833 1478.74018,1042.50215 C1478.74018,796.851672 1678.721,597 1924.52591,597 C2170.33513,597 2370.32024,796.851672 2370.32024,1042.50215 C2370.32024,1288.14833 2170.33513,1488 1924.52591,1488" id="Fill-25" fill="#D1D1D1" fill-rule="nonzero"></path>
                    <path d="M1924.52591,654.369216 C1710.42938,654.369216 1536.24623,828.481269 1536.24623,1042.5 C1536.24623,1256.52303 1710.42938,1430.63508 1924.52591,1430.63508 C2138.63105,1430.63508 2312.8099,1256.52303 2312.8099,1042.5 C2312.8099,828.481269 2138.63105,654.369216 1924.52591,654.369216 M1924.52591,1452 C1698.65095,1452 1514.87311,1268.30123 1514.87311,1042.5 C1514.87311,816.703063 1698.65095,633 1924.52591,633 C2150.41807,633 2334.18731,816.703063 2334.18731,1042.5 C2334.18731,1268.30123 2150.41807,1452 1924.52591,1452" id="Fill-27" fill="#F58434" fill-rule="nonzero"></path>
                    <polygon id="Fill-29" fill="#F58434" fill-rule="nonzero" points="877.126888 457.789641 1606.11092 388.561727 1618.20428 417.76108 891.565443 489"></polygon>
                    <path d="M1691.9067,538 C1691.02933,538 1690.16487,537.565858 1689.65308,536.770647 C1688.85743,535.528398 1689.2187,533.877797 1690.46163,533.082586 C1808.79797,457.305412 1802.20055,337.636882 1802.11883,336.437618 C1803.27575,206.216421 1650.36103,98.9359903 1648.81274,97.8656791 C1647.59992,97.031782 1647.29886,95.3639878 1648.13322,94.1561266 C1648.98047,92.9439669 1650.64058,92.6301809 1651.8577,93.4769733 C1653.42319,94.5601798 1808.64744,203.418137 1807.45612,336.278575 C1807.53353,337.305902 1814.42341,460.047816 1693.34316,537.578753 C1692.89588,537.866748 1692.40129,538 1691.9067,538" id="Fill-31" fill="#656565" fill-rule="nonzero"></path>
                    <path d="M1649.43682,411 C1648.33624,411 1647.30472,410.322261 1646.91628,409.228441 C1646.41562,407.842937 1647.14502,406.320169 1648.53909,405.822588 C1748.07919,370.511522 1781.98144,284.434366 1782.31377,283.567889 C1826.17305,173.430994 1764.07864,135.524788 1761.40271,133.967704 C1760.12949,133.221333 1759.70652,131.582748 1760.45319,130.317349 C1761.20417,129.047661 1762.84857,128.623002 1764.11748,129.365083 C1764.81236,129.768295 1832.93623,170.943091 1787.31171,285.493869 C1786.98801,286.347477 1752.20098,374.715221 1650.34319,410.845578 C1650.04538,410.952816 1649.73894,411 1649.43682,411" id="Fill-33" fill="#656565" fill-rule="nonzero"></path>
                    <polygon id="Fill-35" fill="#D1D1D1" fill-rule="nonzero" points="1575.39577 96 1638.6284 96 1638.6284 70 1575.39577 70"></polygon>
                    <path d="M1580.81571,92.7155418 C1580.81571,96.7380398 1577.65399,100 1573.74983,100 L1464.13484,100 C1460.22641,100 1457.06042,96.7380398 1457.06042,92.7155418 L1457.06042,73.2888544 C1457.06042,69.2619602 1460.22641,66 1464.13484,66 L1573.74983,66 C1577.65399,66 1580.81571,69.2619602 1580.81571,73.2888544 L1580.81571,92.7155418 Z" id="Fill-37" fill="#644633" fill-rule="nonzero"></path>
                    <polygon id="Fill-38" fill="#D1D1D1" fill-rule="nonzero" points="1586.10247 342 1540.16616 185.834746 1639.05313 59 1670.24471 68.0372915 1574.58195 195.300345 1614.773 331.129552"></polygon>
                    <path d="M1630.98769,333.752853 C1632.3113,337.470369 1630.35617,341.54973 1626.63191,342.867875 L1584.96,357.587172 C1581.23141,358.905318 1577.13949,356.96256 1575.81156,353.245044 C1574.48363,349.531835 1576.44308,345.452475 1580.17167,344.130022 L1621.83493,329.415033 C1625.55919,328.092579 1629.65976,330.035337 1630.98769,333.752853" id="Fill-39" fill="#D1D1D1" fill-rule="nonzero"></path>
                    <polygon id="Fill-40" fill="#D1D1D1" fill-rule="nonzero" points="1695.36441 55 1762.38369 132.040214 1638.41994 151 1624.17523 132.035925 1634.86413 113.080429 1650.28552 133.224129 1723.23972 120.192493 1673.9995 65.9211796"></polygon>
                    <path d="M1700.9577,34.5 C1700.9577,53.5523031 1685.59112,69 1666.63356,69 C1647.66744,69 1632.30514,53.5523031 1632.30514,34.5 C1632.30514,15.4476969 1647.66744,0 1666.63356,0 C1685.59112,0 1700.9577,15.4476969 1700.9577,34.5" id="Fill-41" fill="#684633" fill-rule="nonzero"></path>
                    <path d="M1921.64067,1026.48504 L1829.55353,897.383933 C1829.55353,897.383933 1804.69094,865.995824 1785.74721,807.520112 L1625.92549,342 L1588.0423,357.427689 L1760.88462,857.038227 C1760.88462,857.038227 1769.17358,886.703556 1796.40199,912.811623 L1902.95409,1035.23642 L1905.59849,1038.41561 C1905.43134,1039.30493 1905.31991,1040.22432 1905.31991,1041.16519 C1905.31991,1049.35806 1911.94593,1056 1920.11917,1056 C1928.29241,1056 1934.91843,1049.35806 1934.91843,1041.16519 C1934.91843,1033.49645 1929.08959,1027.26265 1921.64067,1026.48504" id="Fill-42" fill="#F58434" fill-rule="nonzero"></path>
                    <path d="M1915.94864,1040.00209 C1915.94864,1042.76387 1918.16966,1045 1920.91692,1045 C1923.66004,1045 1925.8852,1042.76387 1925.8852,1040.00209 C1925.8852,1037.24447 1923.66004,1035 1920.91692,1035 C1918.16966,1035 1915.94864,1037.24447 1915.94864,1040.00209" id="Fill-43" fill="#4E4E4E" fill-rule="nonzero"></path>
                    <path d="M1712.22326,560.595231 C1713.64716,564.278136 1711.77911,568.400404 1708.06043,569.813261 L1666.48873,585.526986 C1662.76135,586.935536 1658.58981,585.09193 1657.17026,581.409025 C1655.75072,577.721814 1657.61877,573.595238 1661.32874,572.186688 L1702.90479,556.472963 C1706.62783,555.064413 1710.79936,556.908019 1712.22326,560.595231" id="Fill-44" fill="#D1D1D1" fill-rule="nonzero"></path>
                    <path d="M1667.53474,42.7155418 C1667.53474,46.7380398 1664.36438,50 1660.46435,50 L1550.84985,50 C1546.94129,50 1543.77946,46.7380398 1543.77946,42.7155418 L1543.77946,23.2888544 C1543.77946,19.2663563 1546.94129,16 1550.84985,16 L1660.46435,16 C1664.36438,16 1667.53474,19.2663563 1667.53474,23.2888544 L1667.53474,42.7155418 Z" id="Fill-45" fill="#644633" fill-rule="nonzero"></path>
                    <polygon id="Fill-46" fill="#D1D1D1" fill-rule="nonzero" points="911.038323 555 878.030211 566.261436 885.556961 592 918.679758 580.703847"></polygon>
                    <path d="M875.595382,437 C863.185044,451.265563 842.800604,447.701325 842.800604,447.701325 L878.20921,567 L911.453172,555.825166 L875.595382,437 Z" id="Fill-47" fill="#F58434" fill-rule="nonzero"></path>
                    <polygon id="Fill-48" fill="#D1D1D1" fill-rule="nonzero" points="927.174058 604 893.386707 615.313978 901.035614 641 934.939577 629.65137"></polygon>
                    <polygon id="Fill-49" fill="#F58434" fill-rule="nonzero" points="1083.98792 1122.31499 933.6649 630 899.70997 641.275604 1051.59448 1147"></polygon>
                    <polygon id="Fill-50" fill="#F58434" fill-rule="nonzero" points="919.749733 581 886.160121 592.37959 893.108062 616 926.809668 604.581064"></polygon>
                    <polygon id="Fill-51" fill="#D1D1D1" fill-rule="nonzero" points="846.413897 894.474024 842.196105 884.273395 491.616338 1024.73946 632.097615 674.225545 621.899244 670 473.343539 1017.17388 324.783536 670 314.585164 674.225545 455.070741 1024.73946 104.490974 884.273395 100.268882 894.474024 447.507952 1043.0043 100.268882 1191.52598 104.490974 1201.7309 455.070741 1061.26914 314.585164 1411.77875 324.783536 1416 473.343539 1068.83472 621.899244 1416 632.097615 1411.77875 491.616338 1061.26914 842.196105 1201.7309 846.413897 1191.52598 499.174828 1043.0043"></polygon>
                    <path d="M20.4328694,903 L0,896.752541 C30.4731587,797.059602 93.3785568,707.47689 177.150744,644.516773 C263.762738,579.412583 366.971069,545 475.618427,545 C633.603689,545 783.69248,621.21126 877.126888,748.871674 L859.89471,761.4869 C770.464389,639.309125 626.815646,566.363387 475.618427,566.363387 C264.896943,566.363387 81.9677702,701.646215 20.4328694,903" id="Fill-53" fill="#F58434" fill-rule="nonzero"></path>
                    <path d="M475.597549,604.490223 C234.047364,604.490223 37.5318131,800.977778 37.5318131,1042.49785 C37.5318131,1284.01363 234.047364,1480.50978 475.597549,1480.50978 C717.152032,1480.50978 913.671881,1284.01363 913.671881,1042.49785 C913.671881,800.977778 717.152032,604.490223 475.597549,604.490223 M475.597549,1509 C218.332309,1509 9.03323263,1299.72644 9.03323263,1042.49785 C9.03323263,785.269261 218.332309,576 475.597549,576 C732.862788,576 942.166163,785.269261 942.166163,1042.49785 C942.166163,1299.72644 732.862788,1509 475.597549,1509" id="Fill-54" fill="#656565" fill-rule="nonzero"></path>
                    <path d="M475.599698,614.798954 C239.611161,614.798954 47.6201233,806.661713 47.6201233,1042.50215 C47.6201233,1278.33829 239.611161,1470.20534 475.599698,1470.20534 C711.588234,1470.20534 903.579273,1278.33829 903.579273,1042.50215 C903.579273,806.661713 711.588234,614.798954 475.599698,614.798954 M475.599698,1488 C229.794781,1488 29.8096677,1288.14833 29.8096677,1042.50215 C29.8096677,796.851672 229.794781,597 475.599698,597 C721.408913,597 921.389728,796.851672 921.389728,1042.50215 C921.389728,1288.14833 721.408913,1488 475.599698,1488" id="Fill-55" fill="#D1D1D1" fill-rule="nonzero"></path>
                    <path d="M475.597549,654.369216 C261.495589,654.369216 87.3201239,828.481269 87.3201239,1042.5 C87.3201239,1256.52303 261.495589,1430.63508 475.597549,1430.63508 C689.699508,1430.63508 863.883571,1256.52303 863.883571,1042.5 C863.883571,828.481269 689.699508,654.369216 475.597549,654.369216 M475.597549,1452 C249.712802,1452 65.9425982,1268.30123 65.9425982,1042.5 C65.9425982,816.703063 249.712802,633 475.597549,633 C701.486594,633 885.256798,816.703063 885.256798,1042.5 C885.256798,1268.30123 701.486594,1452 475.597549,1452" id="Fill-56" fill="#F58434" fill-rule="nonzero"></path>
                    <path d="M1038.91947,1234.79773 C1046.34349,1217.0711 1060.81323,1184.99025 1072.53603,1174.30954 C1074.31144,1174.28803 1076.06105,1174.09446 1077.73757,1173.73743 C1077.73757,1173.73743 1103.27671,1180.0822 1140.55154,1215.58707 C1123.33058,1231.78235 1100.17298,1241.74471 1074.72842,1241.74471 C1062.07277,1241.74471 1049.99746,1239.26272 1038.91947,1234.79773 L1038.91947,1234.79773 Z M978.547218,1145.50215 C978.547218,1143.79874 978.594505,1142.10394 978.680481,1140.42204 C999.512433,1143.61808 1034.81412,1150.21663 1045.18281,1159.48214 C1044.56379,1167.14318 1041.06887,1190.55213 1021.81457,1225.81612 C995.768184,1208.57557 978.547218,1179.01972 978.547218,1145.50215 L978.547218,1145.50215 Z M1045.10114,1053.95257 C1049.54179,1075.45594 1056.79385,1116.86253 1049.40423,1127.63787 C1041.02588,1128.93264 1018.26377,1130.76509 981.56927,1121.52539 C989.779965,1089.60369 1013.99507,1064.05687 1045.10114,1053.95257 L1045.10114,1053.95257 Z M1053.81049,1128.22288 C1053.46229,1128.5498 1053.13128,1128.88102 1052.80027,1129.22944 L1052.91634,1128.42505 L1053.81049,1128.22288 Z M1149.41136,1084.94513 C1133.05445,1096.8948 1097.83873,1121.2845 1083.3518,1120.81564 C1080.68655,1116.56572 1068.3877,1094.74833 1064.07601,1049.8575 C1067.57093,1049.47467 1071.12603,1049.25529 1074.72842,1049.25529 C1104.84577,1049.25529 1131.76481,1063.19227 1149.41136,1084.94513 L1149.41136,1084.94513 Z M1099.7517,1147.35181 C1099.7517,1147.35181 1114.75019,1126.48506 1160.12395,1101.29957 C1167.00202,1114.5483 1170.90962,1129.57356 1170.90962,1145.50215 C1170.90962,1166.0807 1164.39695,1185.15801 1153.36195,1200.8199 C1136.81159,1188.37556 1102.44274,1161.10382 1099.7517,1147.35181 L1099.7517,1147.35181 Z M1074.72842,1035 C1023.42662,1035 980.185058,1070.18656 967.838924,1117.71423 C967.24569,1117.53357 966.682548,1117.38731 966.089315,1117.20235 L962.942598,1138.24546 C962.942598,1138.24546 963.518636,1138.31428 964.546048,1138.44333 C964.39559,1140.77906 964.301017,1143.1277 964.301017,1145.50215 C964.301017,1184.2977 984.393577,1218.4605 1014.70867,1238.18304 C1014.6055,1238.3465 1014.51952,1238.50565 1014.41635,1238.67341 L1017.47279,1239.95527 C1034.1736,1250.13271 1053.7761,1256 1074.72842,1256 C1135.62083,1256 1185.16012,1206.4291 1185.16012,1145.50215 C1185.16012,1084.5709 1135.62083,1035 1074.72842,1035 L1074.72842,1035 Z" id="Fill-57" fill="#D1D1D1" fill-rule="nonzero"></path>
                    <path d="M1088.50453,1144.99786 C1088.50453,1153.28377 1081.83422,1160 1073.5997,1160 C1065.36517,1160 1058.69486,1153.28377 1058.69486,1144.99786 C1058.69486,1136.71623 1065.36517,1130 1073.5997,1130 C1081.83422,1130 1088.50453,1136.71623 1088.50453,1144.99786" id="Fill-58" fill="#656565" fill-rule="nonzero"></path>
                    <path d="M854.046969,484 L499.876949,1003.66572 C499.876949,1003.66572 491.868274,1022.3629 458.028074,1023.25263 C458.028074,1023.25263 434.866108,1021.47317 430.416844,1041.06439 C430.416844,1041.06439 425.963281,1060.6556 445.557238,1065.99827 C445.557238,1065.99827 465.146897,1075.79387 488.304564,1052.63945 C488.304564,1052.63945 507.008668,1062.0955 548.866141,1068.05711 L962.093157,1131 L965.652568,1116.06374 L524.818621,1049.07624 C524.818621,1049.07624 492.758127,1040.17036 515.021643,1008.11436 L859.648313,502.275962 L854.046969,484 Z" id="Fill-59" fill="#F58434" fill-rule="nonzero"></path>
                    <path d="M471.573261,996.120689 C427.759723,996.120689 419.365963,1025.87116 419.030556,1027.13887 C407.820242,1081.31971 451.569278,1092.36816 453.431214,1092.81079 L1007.65161,1243.97395 C1029.09182,1250.55747 1049.44841,1253.87501 1068.23977,1253.87501 C1123.39262,1253.87501 1148.2815,1225.13442 1148.5266,1224.8465 L1148.88351,1224.48552 C1194.21928,1183.8327 1180.79872,1125.05372 1180.64822,1124.46498 C1157.02357,1040.54227 1084.64458,1039.57537 1081.57862,1039.57537 L485.316324,997.010238 C480.43573,996.412908 475.873343,996.120689 471.573261,996.120689 M1068.23977,1261 C1048.7389,1261 1027.68569,1257.57502 1005.66497,1250.81531 L451.66818,1099.71232 C451.259672,1099.61348 399.456582,1086.56676 412.094524,1025.51448 C412.223526,1024.9902 422.044914,989 471.573261,989 C476.161449,989 481.016241,989.313706 486.004337,989.923928 L1081.79793,1032.45898 L1081.83663,1032.45898 C1085.4573,1032.45898 1162.54057,1033.81264 1187.54555,1122.67299 C1187.73045,1123.43792 1202.06693,1186.18335 1153.8114,1229.62514 C1151.22705,1232.60319 1125.05675,1261 1068.23977,1261" id="Fill-60" fill="#656565" fill-rule="nonzero"></path>
                    <path d="M551.02719,1020.72072 C551.02719,1020.72072 551.02719,992.657431 577.768467,992 L1080.50878,1012.71123 C1080.50878,1012.71123 1158.95129,1010.03854 1194.60776,1075.91486 C1194.60776,1075.91486 1230.25993,1128.43201 1194.60776,1213 L1174.9014,1204.10105 C1174.9014,1204.10105 1197.27974,1180.95775 1187.29748,1116.17285 C1187.29748,1116.17285 1169.32941,1044.3066 1094.76793,1035.45061 C1094.76793,1035.45061 1042.18033,1031.39001 1019.89665,1038.07175 L551.02719,1020.72072 Z" id="Fill-61" fill="#F58434" fill-rule="nonzero"></path>
                </g>
            </g>
            <g id="Car" mask="url(#mask-2)">
                <g transform="translate(-3175.000000, 1589.000000)">
                    <path d="M18,1136.95477 C18,1136.95477 35.1087536,1218.73807 151.616217,1261.37591 C256.507921,1299.76176 398.389871,1299.60897 422.583538,1285.80526 C446.777204,1272.00154 481.034072,1279.72411 481.034072,1279.72411 C481.034072,1279.72411 1002.6805,1211.76636 965.327258,1219.62426 C912.968874,1230.63842 914.009744,1298.32551 948.577124,1294.8724 C983.14013,1291.41929 3222.08645,1171.23705 3329.57595,1264.15237 C3405.32767,1291.48914 3374.11469,1261.15327 3374.11469,1261.15327 L3965.1539,1205.95151 C3965.1539,1205.95151 4202.67756,1199.05839 4239.60836,1136.95477 C4276.53916,1074.85116 4287.77583,1034.74331 4287.77583,1034.74331 C4287.77583,1034.74331 4124.13586,1119.70231 4044.64488,1130.05291 C3965.1539,1140.40352 3197.84467,1119.69795 3180.56098,1116.2492 C3163.27729,1112.80046 2357.95006,1071.39804 2357.95006,1071.39804 C2357.95006,1071.39804 1476.58248,1078.2999 1473.12311,1057.5987 C1469.66812,1036.89749 854.439618,1136.94604 861.349595,1123.15106 C868.259572,1109.35171 249.571704,1105.8986 249.571704,1105.8986 L18,1136.95477 Z" id="Shape" fill="#222223" fill-rule="nonzero"></path>
                    <path d="M1255,434.459986 C1264.91267,427.034448 1703.50113,60.4733113 2444.39311,28.2755803 C3185.28072,-3.9221506 3784.93361,211.553963 3789.88775,223.935689 C3794.84627,236.326155 3634.52519,386.720633 3506.54817,424.211082 C3378.55803,461.701531 1259.95852,484 1259.95852,484 L1255,434.459986 Z" id="Shape" fill="#222223" fill-rule="nonzero"></path>
                    <path d="M1592.25847,463.987348 C1592.25847,463.987348 1452.71955,586.02351 1609.3072,463.987348 C1963.66537,187.807386 2638.31924,133.251536 3139.1924,259.410571 C3142.59952,382.160138 3135.78528,395.798007 3135.78528,395.798007 L3203.92772,399.207474 L3210.74633,269.638972 C3210.74633,269.638972 3421.99226,313.966421 3500.36481,351.470558 C3578.73736,388.974696 3527.62179,429.892677 3527.62179,429.892677 L1885.29719,539 L1592.25847,463.987348 Z" id="Shape" fill="#5CADCE" fill-rule="nonzero"></path>
                    <g id="Group" stroke-width="1" fill="none" fill-rule="evenodd" transform="translate(155.000000, 601.000000)">
                        <path d="M3046.87371,588.585592 C3052.88267,586.573901 3131.14784,562.494845 3145.19061,560.496275 C3159.23339,558.484585 3799.31883,532.406958 3797.30709,532.406958 C3795.30848,532.406958 3879.57387,566.518225 3879.57387,566.518225 C3879.57387,566.518225 3929.736,516.357169 3929.736,510.335218 C3929.736,504.313268 3823.3984,90.9852887 3823.3984,90.9852887 L3319.74784,28.7847042 C3319.74784,28.7847042 3040.85163,133.117077 3032.82219,143.149289 C3024.79275,153.1815 2926.47584,383.931106 2926.47584,383.931106 L3046.87371,588.585592 Z" id="Shape" fill="#000000" fill-rule="nonzero"></path>
                    </g>
                    <g id="Group" stroke-width="1" fill="none" fill-rule="evenodd">
                        <path d="M4329.09864,789.326366 C4295.68952,745.44072 4279.6388,651.15522 4286.03722,610.491701 C4292.43564,569.841299 4280.34293,517.605226 4280.34293,517.605226 C4280.34293,517.605226 4262.03986,431.30728 4245.03134,414.143 C4228.00533,396.965604 4252.57999,392.541189 4276.97096,379.377244 C4301.37069,366.204555 4280.46976,353.079957 4264.55461,352.577183 C4248.64822,352.074409 4219.03966,349.905921 4219.03966,349.905921 C4173.83086,346.657561 4062.07059,295.387689 3729.55822,180.505927 C3397.06771,65.6547683 3042.40359,-26.2436463 2390.5037,8.39532317 C1738.58631,43.0430366 1334.3224,374.638049 1242.88576,423.50772 C1151.44912,472.390506 1093.44347,442.691841 1093.44347,442.691841 C1093.44347,442.691841 1093.44347,442.691841 1054.50625,445.463659 C974.427578,442.84486 945.785566,447.474756 765.873145,483.622049 C521.875916,494.298354 332.324313,563.453878 245.252422,626.615457 C112.407542,655.741396 17.4021325,733.400366 17.4021325,733.400366 C-6.95822892,757.135689 3.51628916,753.039171 0.223048193,771.261463 C-3.07019277,789.488128 31.1480241,920.498018 31.1480241,920.498018 C31.1480241,920.498018 3.60813253,1002.73879 22.8252651,1010.55147 C42.0423976,1018.3554 47.6798313,1028.24038 63.8661325,1068.7946 C-35.954494,1122.3991 21.814988,1152.19395 65.8823133,1177.70428 C109.954012,1203.20587 225.864723,1233.76144 284.67947,1221.7648 C247.859024,1097.15545 273.43959,958.691384 297.869928,904.662811 C322.304639,850.651726 392.437988,665.031793 678.569458,666.994799 C1074.93047,686.895921 1100.76907,1100.4213 1098.93658,1148.5696 C1099.5926,1183.98677 1107.54799,1198.71588 1107.54799,1198.71588 C1107.54799,1198.71588 1119.27333,1207.73959 1146.90506,1202.60691 C1215.90567,1185.14971 2953.24554,1169.12214 2953.24554,1169.12214 C2953.24554,1169.12214 3108.06723,1168.57127 3166.2347,1190.58842 C3224.41966,1212.61431 3219.76189,1163.5479 3224.32345,1109.42315 C3228.885,1055.28527 3272.78613,679.328073 3627.38028,678.322524 C4016.49441,695.749122 4018.76425,1075.61922 4015.3748,1106.67756 C4011.97222,1137.74465 4000.01071,1179.28693 4086.30849,1159.41204 C4172.60628,1139.53277 4234.8236,1107.38145 4234.8236,1107.38145 C4234.8236,1107.38145 4290.69061,1032.42434 4302.90578,1005.18271 C4315.12095,977.932341 4307.77786,967.728207 4307.77786,967.728207 C4307.77786,967.728207 4322.65211,912.61539 4340.90707,867.763543 C4359.14454,822.942299 4356.62978,815.833506 4329.09864,789.326366 Z M3685.8189,243.615043 C3678.55016,253.67053 3599.4249,338.267787 3376.27612,353.57836 C3153.12734,368.880189 2272.78673,422.405988 2272.78673,422.405988 C2272.78673,422.405988 1973.27237,432.068 1700.99176,437.226902 L1465.84211,441.826195 C1401.03567,442.945415 1363.76039,443.767341 1340.93512,442.162835 C1340.93512,442.162835 1774.31339,116.469957 2238.984,71.8716829 C2644.09637,29.6298902 2988.96824,17.0299268 3553.33702,195.186939 C3683.24729,238.696598 3693.07453,233.546439 3685.8189,243.615043 Z" id="Shape" fill="#DBDADB" fill-rule="nonzero"></path>
                        <path d="M3186.75076,508.467848 C3190.22769,506.653488 3276.09249,506.81525 3298.40606,505.153909 C3320.71963,503.501311 3328.09334,499.649622 3335.4583,494.547555 C3342.81452,489.458604 3351.58775,494.259006 3370.20134,493.900506 C3388.81493,493.563866 3385.39486,509.753201 3369.37037,516.263037 C3353.35901,522.764128 3184.599,525.885701 3184.599,525.885701 C3184.599,525.885701 3167.08316,518.768165 3186.75076,508.467848 Z" id="Shape" fill="#797A7D" fill-rule="nonzero"></path>
                        <path d="M4014.4826,435.775415 C4015.04241,435.766671 4016.7262,435.744811 4019.37217,435.69672 C4053.47667,435.185201 4246.68452,432.452732 4249.41795,432.40464 C4252.37443,432.347805 4297.86314,499.33047 4284.62458,581.164652 C4235.60208,588.942354 4204.83893,573.793543 4140.18994,533.70275 C4075.51908,493.620701 4016.7262,435.744811 4016.7262,435.744811" id="Shape" fill="#F36C28" fill-rule="nonzero"></path>
                        <path d="M2949.72925,480.858976 C2938.44564,483.372848 3058.07382,467.305927 3208.05842,455.278689 C3358.0299,443.268939 4039.28906,421.409183 4173.3454,423.542695 C4131.41234,409.806024 4093.07866,402.601049 4037.13293,373.160329 C3967.60312,336.553982 3511.63576,378.052543 3458.76459,392.890945 C3405.90654,407.729348 3128.51769,441.222866 2949.72925,480.858976 Z" id="Shape" fill="#FFFFFF" fill-rule="nonzero"></path>
                        <g opacity="0.3" transform="translate(229.421687, 23.859756)" id="Shape" fill-rule="nonzero">
                            <path d="M4019.8257,566.905701 C4019.68137,567.91125 4005.86988,667.73164 3996.86486,704.709604 C3988.36278,739.641494 3976.76428,754.230695 3887.90363,768.885476 C3802.57239,782.971902 3709.34699,788.642323 3703.62646,787.203951 L3702.778,789.398671 L3701.51406,791.379165 C3702.19195,791.811988 3704.96475,792.01747 3709.43883,792.01747 C3735.68417,792.01747 3820.58243,784.773146 3888.67336,773.537232 C3975.83272,759.162256 3991.79598,745.464933 4001.43953,705.828823 C4010.50578,668.62789 4024.36101,568.562671 4024.48784,567.561494 L4019.8257,566.905701 Z" fill="#B6B8BA"></path>
                            <path d="M3523.86711,217.65675 C3518.06786,227.148256 3463.77967,305.26628 3235.71071,337.561884 C3233.11286,331.668494 3231.01358,326.518335 3229.53534,322.867756 C3228.36761,319.98664 3227.5454,317.997402 3227.12992,317.206079 L3222.96635,319.392055 C3223.34247,320.126543 3224.08596,321.971506 3225.17059,324.634024 C3226.57011,328.061634 3228.49445,332.809573 3230.87363,338.226421 C3213.03414,340.679085 3194.18876,342.860689 3174.20627,344.692537 C3008.68701,359.911299 2595.26063,386.6895 2237.90681,408.173268 C2239.25822,402.376061 2240.4653,397.374549 2241.46246,393.334866 L2241.86482,391.673524 L2237.27702,390.619884 L2236.88778,392.215646 C2235.8119,396.583226 2234.49548,402.039421 2232.99537,408.474933 C1958.76855,424.944073 1718.46693,438.256665 1650.06548,440.739933 C1487.29716,446.672671 1426.54058,444.932634 1426.1907,444.915146 L1426.02888,446.462817 L1425.99389,444.897659 L1424.52877,444.937006 L1423.2211,447.332835 L1423.94272,448.500146 C1424.16577,448.858646 1424.3582,449.164683 1426.09011,449.409512 L1426.09448,449.601878 L1426.09011,449.409512 C1428.62236,449.746152 1434.45223,449.94289 1448.53488,449.94289 C1455.80363,449.94289 1465.27661,449.894799 1477.63173,449.789872 C1510.10493,449.492579 1566.41366,448.513262 1650.24042,445.46164 C1718.54128,442.969628 1958.19125,429.705128 2231.89763,413.26222 C2217.06273,477.814079 2186.8069,627.509689 2180.23792,799.126262 C2172.99541,988.283104 2182.52963,1072.1721 2185.12311,1090.77913 C2037.9288,1093.62964 1912.72878,1095.94677 1910.02159,1096.00361 L868.990072,1119.01319 L869.095036,1123.72615 L1910.12218,1100.70346 C1915.97829,1100.58541 2497.37746,1089.80418 2631.06642,1086.10551 C2768.29792,1082.29754 2783.34273,1074.46301 2899.5421,946.377951 C3017.19783,816.66653 3251.34158,501.317689 3280.46905,460.116421 C3307.43164,422.02361 3301.90354,415.242713 3280.40345,399.556152 C3277.98928,397.789884 3275.3783,395.883713 3272.61425,393.758945 C3258.13799,382.601726 3245.8922,359.858835 3237.72689,342.021274 C3466.84549,309.214152 3521.98651,229.767055 3527.88198,220.109415 L3526.02761,218.640439 L3523.86711,217.65675 Z M3269.74087,397.483848 C3272.54428,399.647963 3275.18149,401.580366 3277.63502,403.368494 C3296.99211,417.481152 3302.19219,421.280378 3276.62912,457.410183 C3247.51914,498.572104 3013.58095,813.654256 2896.04767,943.225774 C2781.12537,1069.90306 2766.26424,1077.6589 2630.93522,1081.41004 C2559.58604,1083.38179 2360.71014,1087.36901 2189.87272,1090.68295 C2187.46293,1073.84656 2177.61819,990.678933 2184.9438,799.309884 C2191.54777,626.845152 2222.10975,476.585561 2236.78719,412.960555 C2594.53025,391.454927 3008.86633,364.61989 3174.63924,349.388012 C3195.19466,347.494957 3214.55175,345.243402 3232.86357,342.703299 C3241.22131,361.161677 3254.12312,385.465354 3269.74087,397.483848 Z" fill="#FFFFFF"></path>
                            <path d="M1712.14286,93.3097134 C2056.8704,-8.84967073 2400.94629,2.84967073 2585.78327,9.13216463 L2609.53134,9.92785976 C2613.40625,10.080878 3003.38196,27.2582744 3477.34625,193.156335 C3479.64671,194.19686 3481.94717,195.233012 3484.24763,196.269165 L3486.70116,199.68803 C3487.31782,199.233348 3487.86013,198.673738 3488.4593,198.166591 C3744.69357,313.651683 3971.78287,412.960555 3974.08333,413.974848 L3975.9683,409.65536 C3973.66784,408.649811 3747.60194,309.786878 3491.90124,194.568476 C3497.80546,187.241085 3501.11182,176.984488 3503.43852,169.643982 C3504.33508,166.841561 3505.45033,163.344 3506.01888,162.67072 L3504.3001,161.053098 L3502.60755,159.417988 C3501.3786,160.690226 3500.56076,163.169122 3498.95569,168.218726 C3496.63773,175.546116 3493.27452,185.968848 3487.46652,192.56175 C3484.67186,191.315744 3481.89031,190.056622 3479.09565,188.793128 C3004.24354,22.5715427 2613.60743,5.38103049 2609.7019,5.2280122 L2585.94071,4.43231707 C2400.84133,-1.86766463 2056.26686,-13.580122 1710.80457,88.8022317 C1353.63006,194.660287 1079.70939,418.180665 1076.9847,420.423476 L1079.97617,424.056567 C1082.69648,421.809384 1355.87366,198.896707 1712.14286,93.3097134 Z" fill="#FFFFFF"></path>
                        </g>
                        <g transform="translate(229.421687, 21.859756)" id="Shape" fill-rule="nonzero">
                            <path d="M4019.58516,566.470524 C4019.44083,567.467329 4005.62059,667.296463 3996.61557,704.265683 C3988.11349,739.206317 3976.52373,753.795518 3887.65434,768.450299 C3802.3231,782.52361 3709.10645,788.21589 3703.37717,786.764402 L3702.53746,788.946006 L3701.2604,790.9265 C3701.94704,791.359323 3704.71108,791.582293 3709.19392,791.582293 C3735.43925,791.582293 3820.33752,784.329226 3888.4197,773.084567 C3975.57906,758.718335 3991.54231,745.021012 4001.18587,705.384902 C4010.25212,668.170854 4024.0986,568.11875 4024.24293,567.117573 L4019.58516,566.470524 Z" fill="#A9ABAE"></path>
                            <path d="M3523.62657,217.217201 C3517.81857,226.708707 3463.53476,304.831104 3235.47017,337.126707 C3232.87231,331.228945 3230.77304,326.083159 3229.28605,322.432579 C3228.11833,319.551463 3227.30486,317.562226 3226.88063,316.770902 L3222.71706,318.952506 C3223.10193,319.686994 3223.8498,321.531957 3224.9213,324.198848 C3226.31207,327.626457 3228.2539,332.370024 3230.62434,337.786872 C3212.7936,340.239537 3193.95259,342.425512 3173.96572,344.25736 C3008.43335,359.476122 2595.01571,386.254323 2237.66189,407.738091 C2239.0133,401.940884 2240.22039,396.939372 2241.21754,392.899689 L2241.6199,391.229604 L2237.03211,390.184707 L2236.64724,391.767354 C2235.57136,396.143677 2234.25494,401.591128 2232.75483,408.035384 C1958.52364,424.504524 1718.22201,437.817116 1649.82494,440.300384 C1487.05661,446.233122 1426.30004,444.493085 1425.94578,444.475598 L1425.78396,446.023268 L1425.74898,444.449366 L1424.28386,444.488713 L1422.97618,446.893287 L1423.69781,448.051854 C1423.92523,448.419098 1424.11766,448.729506 1425.84519,448.96122 L1425.85394,449.162329 L1425.84519,448.96122 C1428.37745,449.310976 1434.21169,449.503341 1448.28996,449.503341 C1455.55871,449.503341 1465.0317,449.45525 1477.38682,449.350323 C1509.86001,449.05303 1566.16875,448.06497 1649.99988,445.013348 C1718.29636,442.530079 1957.95071,429.256835 2231.65271,412.827043 C2216.81782,477.365787 2186.57073,627.074512 2180.00175,798.682341 C2172.75924,987.847927 2182.29346,1071.74567 2184.88694,1090.34395 C2037.69263,1093.19446 1912.49261,1095.5116 1909.78542,1095.55969 L868.753904,1118.58238 L868.858867,1123.2866 L1909.88164,1100.26391 C1915.73775,1100.15898 2497.12817,1089.37775 2630.82588,1085.67908 C2768.03988,1081.87111 2783.10657,1074.03657 2899.28406,945.951518 C3016.96166,816.226982 3251.09666,500.882512 3280.23288,459.681244 C3307.18672,421.601549 3301.66737,414.820652 3280.1629,399.12972 C3277.74873,397.363451 3275.13776,395.45728 3272.36496,393.323768 C3257.8887,382.175293 3245.64292,359.436774 3237.4776,341.594841 C3466.5962,308.78772 3521.72847,229.340622 3527.64143,219.682982 L3525.78707,218.214006 L3523.62657,217.217201 Z M3269.47846,397.048671 C3272.29061,399.212787 3274.94095,401.145189 3277.38573,402.920201 C3296.74282,417.045976 3301.9429,420.840829 3276.37983,456.96189 C3247.28298,498.132555 3013.32292,813.205963 2895.79839,942.777482 C2780.88483,1069.46351 2766.01495,1077.21061 2630.6903,1080.97049 C2559.34112,1082.94224 2360.46523,1086.92946 2189.61906,1090.2434 C2187.20927,1073.40701 2177.37328,990.23064 2184.69888,798.870335 C2191.30286,626.392488 2221.86483,476.137268 2236.54228,412.521006 C2594.28096,391.015378 3008.62578,364.180341 3174.38558,348.948463 C3194.941,347.055409 3214.30683,344.799482 3232.6099,342.259378 C3240.98077,360.7265 3253.87383,385.030177 3269.47846,397.048671 Z" fill="#B6B8BA"></path>
                            <path d="M1711.89357,92.8745366 C2056.62548,-9.28484756 2400.69263,2.4144939 2585.53398,8.69261585 L2609.27767,9.49268293 C2613.16134,9.63695732 3003.1458,26.8187256 3477.09696,192.716787 C3479.40617,193.752939 3481.70663,194.797835 3483.99834,195.829616 L3486.45187,199.24411 C3487.06853,198.798171 3487.61959,198.238561 3488.20127,197.727043 C3744.44865,313.212134 3971.53795,412.521006 3973.83404,413.526555 L3975.71901,409.220183 C3973.4273,408.214634 3747.3614,309.351701 3491.64758,194.133299 C3497.54305,186.805909 3500.8669,176.549311 3503.19798,169.204433 C3504.0858,166.39764 3505.19666,162.908823 3505.76959,162.235543 L3504.05955,160.613549 L3502.36701,158.974067 C3501.13806,160.246305 3500.31584,162.725201 3498.7064,167.779177 C3496.38845,175.106567 3493.03398,185.529299 3487.21723,192.122201 C3484.42257,190.867451 3481.64102,189.612701 3478.84636,188.353579 C3003.99425,22.127622 2613.35814,4.94148171 2609.45261,4.78846341 L2585.6958,3.98839634 C2400.58766,-2.31158537 2056.01319,-14.0196707 1710.55965,88.3626829 C1353.38514,194.220738 1079.46447,417.741116 1076.73978,419.983927 L1079.73563,423.617018 C1082.44719,421.374207 1355.62875,198.452787 1711.89357,92.8745366 Z" fill="#B6B8BA"></path>
                        </g>
                        <g transform="translate(3252.506024, 683.024390)" id="Shape" fill-rule="nonzero">
                            <path d="M748.401253,364.636201 C744.613807,159.950189 574.174373,-2.8787622 367.72359,0.955439024 C161.268434,4.77215244 -3.02624096,173.796159 0.769951807,378.486543 C4.55739759,583.172555 175.009952,745.98839 381.465108,742.171677 C587.902771,738.337476 752.197446,569.317841 748.401253,364.636201 Z" fill="#222223"></path>
                            <path d="M655.250205,366.354378 C652.38994,212.684665 524.430253,90.4317927 369.42488,93.3085366 C214.428253,96.1852805 91.0869759,223.081165 93.938494,376.750878 C96.790012,530.429335 224.745325,652.682207 379.746325,649.809835 C534.742952,646.933091 658.092976,520.024091 655.250205,366.354378 Z" fill="url(#linearGradient-5)"></path>
                            <path d="M298.84106,358.240037 C304.552843,355.253994 308.493361,334.290488 295.311651,323.723482 C282.138687,313.156476 216.523157,273.297396 198.443133,270.022805 C180.363108,266.765701 157.275434,265.751409 158.657458,262.122689 C159.79894,259.079811 159.169157,241.351549 160.192554,234.872317 C154.489518,248.079982 121.583349,314.503037 117.721554,347.909116 C116.851229,355.385152 204.404205,357.837817 236.133904,358.690348 C267.867976,359.542878 293.129277,361.234823 298.84106,358.240037 Z M160.997277,232.528951 C160.660518,232.769409 160.398108,233.630683 160.196928,234.867945 C160.909807,233.232835 161.229072,232.362817 160.997277,232.528951 Z M444.307843,350.501683 L444.355952,353.378427 C463.153229,355.91853 472.118892,373.039091 507.452349,373.830415 C542.794554,374.621738 618.700916,347.275183 618.700916,347.275183 C618.700916,347.275183 618.700916,347.275183 631.948229,362.161677 C633.649518,337.626287 607.596614,254.524238 605.440482,254.554841 C603.275602,254.594189 579.746205,268.002963 549.02241,282.98564 C518.302988,297.968317 451.471627,348.202037 444.307843,350.501683 Z M381.368892,299.061305 C399.19088,288.656061 409.761614,276.204744 415.600229,240.791939 C421.438843,205.366018 427.640458,151.206287 427.640458,151.206287 C427.640458,151.206287 425.195675,136.127427 431.642205,133.836524 C438.088735,131.558738 452.525639,132.726049 454.690518,132.686701 C456.855398,132.647354 391.506651,107.906482 324.828361,126.456671 C317.870133,128.380329 362.960855,278.517506 365.27006,286.387018 C367.579265,294.287134 363.52941,309.484037 381.368892,299.061305 Z M320.485482,437.105665 C312.503855,434.373195 296.112,444.765323 276.265084,462.423634 C256.413795,480.081945 203.555747,545.919159 203.555747,545.919159 C215.412289,563.713 274.467578,598.653634 274.467578,598.653634 C274.467578,598.653634 325.96547,460.77978 331.524181,449.159134 C337.078518,437.534116 328.467108,439.842506 320.485482,437.105665 Z M465.116928,383.986457 C446.232181,376.414238 410.653807,362.655707 414.834867,355.372037 C419.037795,348.088366 423.909867,338.631835 440.367325,331.837823 C456.816036,325.056927 465.165036,309.038098 471.515349,301.715079 C477.865663,294.392061 572.123205,206.909317 572.123205,206.909317 C572.123205,206.909317 516.409265,156.767409 494.65988,149.964652 C464.81953,212.492299 419.483892,294.750561 403.896759,309.462177 C388.318373,324.156305 367.137542,348.324451 361.771265,331.138311 C356.409361,313.943427 345.659313,278.827915 324.351651,256.88072 C303.035241,234.942268 276.400663,159.058311 276.400663,159.058311 L296.798639,131.287677 C296.798639,131.287677 220.310602,166.573695 191.327458,197.378463 C233.103072,234.076622 312.936831,302.484543 323.634398,334.718939 C334.31447,366.944591 342.383566,374.009665 326.525277,374.298213 C310.675735,374.586762 270.360867,377.49411 270.360867,377.49411 C270.360867,377.49411 234.66441,396.175457 192.162795,396.971152 C149.630566,397.753732 120.922952,404.053713 120.95794,406.204713 C120.997301,408.360085 149.661181,477.017207 155.670361,490.579 C214.830614,454.186878 274.865566,425.699244 286.29788,420.435415 C297.730193,415.180329 321.386422,407.546902 340.161831,410.069518 C358.959108,412.600878 368.300892,410.987628 364.872072,420.426671 C363.297614,424.763646 346.289096,467.608768 348.143458,490.640207 C350.019687,513.662902 337.11788,595.322207 335.727108,598.229555 C334.336337,601.145646 330.325843,617.794037 330.325843,617.794037 L417.581422,619.792018 C417.581422,619.792018 386.319687,488.497951 391.091169,473.996189 C395.867024,459.485683 403.520639,405.308463 410.024024,405.898677 C416.518663,406.497634 452.350699,433.944744 456.697952,436.030165 C461.067072,438.098098 478.259277,432.021085 495.770747,443.217652 C513.27347,454.422963 588.204542,491.230421 594.03441,494.002238 C599.84241,496.774055 630.417506,434.959037 632.980373,417.628622 C595.394566,411.84453 483.988554,391.567421 465.116928,383.986457 Z M425.589289,434.692348 C423.472518,435.378744 404.946398,452.477445 417.975036,481.23614 C431.012422,510.003579 484.753916,592.003896 484.753916,592.003896 C484.753916,592.003896 530.833048,573.746628 563.822313,547.711659 C524.404012,515.85325 456.737313,453.754055 445.431831,445.928262 C445.431831,445.928262 430.037133,433.26272 425.589289,434.692348 Z" fill="#414042"></path>
                        </g>
                    </g>
                </g>
            </g>
            <rect id="Rectangle-path-Copy-4" stroke="#110000" stroke-width="100" mask="url(#mask-2)" fill-rule="nonzero" x="50.6" y="50.1" width="2908.5" height="4537.4"></rect>
            <g id="Group-3-Copy" mask="url(#mask-2)">
                <g transform="translate(754.000000, 3660.000000)">
                    <path d="M44.4726562,274 L1.34765625,72.75 L30.0976562,72.75 L51.3232422,180.5625 L58.7353516,230.875 L66.3720703,180.5625 L87.5976562,72.75 L116.347656,72.75 L73.2226562,274 L44.4726562,274 Z M126.870313,108.6875 L126.870313,79.9375 L155.620313,79.9375 L155.620313,108.6875 L126.870313,108.6875 Z M126.870313,274 L126.870313,130.25 L155.620313,130.25 L155.620313,274 L126.870313,274 Z M199.385157,274 L167.041407,130.25 L194.66836,130.25 L214.658594,238.174805 L232.851954,130.25 L260.478907,130.25 L228.359766,274 L199.385157,274 Z M270.664649,274 L270.664649,130.25 L299.414649,130.25 L299.414649,149.454102 C302.334585,143.763969 306.583404,138.803895 312.161231,134.57373 C317.739058,130.343566 323.934472,128.228516 330.747657,128.228516 C330.972267,128.228516 332.507083,128.378254 335.352149,128.677734 L335.352149,160.459961 C330.036367,158.363596 324.720665,157.31543 319.404883,157.31543 C313.41527,157.31543 308.586217,159.112287 304.917579,162.706055 C301.248941,166.299823 299.414649,171.054007 299.414649,176.96875 L299.414649,274 L270.664649,274 Z M382.823048,276.021484 C375.860122,276.021484 369.814447,274.82358 364.685841,272.427734 C359.557234,270.031889 355.476871,266.906107 352.44463,263.050293 C349.412388,259.194479 346.960427,254.253123 345.088673,248.226074 C343.216918,242.199026 341.925427,236.172068 341.214161,230.14502 C340.502894,224.117971 340.072397,217.098998 339.922657,209.087891 C339.698047,202.798797 339.698047,196.509797 339.922657,190.220703 C340.147268,182.733687 340.652634,176.089059 341.43877,170.286621 C342.224907,164.484183 343.591267,158.850288 345.537891,153.384766 C347.484516,147.919244 350.011346,143.427101 353.118458,139.908203 C356.22557,136.389305 360.305933,133.562999 365.359669,131.429199 C370.413405,129.295399 376.309342,128.228516 383.047657,128.228516 C389.187011,128.228516 394.596299,129.033358 399.275684,130.643066 C403.95507,132.252775 407.84826,134.686019 410.955372,137.942871 C414.062484,141.199723 416.645466,144.812155 418.704395,148.780273 C420.763325,152.748392 422.316858,157.558728 423.36504,163.211426 C424.413222,168.864123 425.143195,174.42315 425.554981,179.888672 C425.966767,185.354194 426.172657,191.643194 426.172657,198.755859 L426.172657,202.125 L368.672657,202.125 L368.672657,213.916992 C368.522917,216.687188 368.504199,219.550929 368.616505,222.508301 C368.72881,225.465672 368.859831,228.366848 369.009571,231.211914 C369.159311,234.05698 369.571091,236.770983 370.244923,239.354004 C370.918754,241.937025 371.742314,244.201813 372.715626,246.148438 C373.688938,248.095062 375.055298,249.629877 376.814747,250.75293 C378.574196,251.875982 380.651812,252.4375 383.047657,252.4375 C386.042464,252.4375 388.513142,251.857265 390.459766,250.696777 C392.406391,249.53629 393.84762,247.795585 394.783497,245.474609 C395.719374,243.153634 396.374478,240.832694 396.748829,238.511719 C397.12318,236.190744 397.347787,233.270851 397.422657,229.751953 L397.422657,223.6875 L425.948048,223.6875 L425.948048,229.415039 C425.274216,244.763423 421.493329,256.368125 414.605274,264.229492 C407.717219,272.09086 397.123249,276.021484 382.823048,276.021484 Z M368.672657,187.75 L397.198048,187.75 L397.198048,179.102539 C397.123177,175.284161 396.89857,171.952488 396.52422,169.107422 C396.149869,166.262356 395.494765,163.417332 394.558887,160.572266 C393.62301,157.727199 392.181781,155.555997 390.235157,154.058594 C388.288533,152.56119 385.892723,151.8125 383.047657,151.8125 C380.127721,151.8125 377.675759,152.598625 375.6917,154.170898 C373.707641,155.743172 372.247694,158.00796 371.311817,160.965332 C370.37594,163.922704 369.720836,166.823879 369.346485,169.668945 C368.972134,172.514012 368.747527,175.920553 368.672657,179.888672 L368.672657,187.75 Z M521.00215,276.021484 C509.172663,276.021484 499.683012,272.502639 492.532911,265.464844 C485.38281,258.427048 480.497605,249.293025 477.87715,238.0625 L499.43965,230.875 C504.605691,245.250072 511.793119,252.4375 521.00215,252.4375 C525.56923,252.4375 529.106792,251.183444 531.614943,248.675293 C534.123093,246.167142 535.37715,242.62958 535.37715,238.0625 C535.37715,231.399055 532.98134,225.858746 528.18965,221.441406 L499.43965,199.878906 C496.220232,197.707671 493.524947,195.66749 491.353712,193.758301 C489.182477,191.849112 486.97384,189.509454 484.727736,186.739258 C482.481631,183.969062 480.77836,180.861996 479.617872,177.417969 C478.457385,173.973941 477.87715,170.230489 477.87715,166.1875 C477.87715,153.908793 481.789057,144.512728 489.612989,137.999023 C497.436922,131.485319 507.899871,128.228516 521.00215,128.228516 C527.216373,128.228516 532.831552,129.22053 537.847853,131.20459 C542.864154,133.188649 547.075537,135.977521 550.48213,139.571289 C553.888723,143.165057 556.696312,147.151834 558.904982,151.531738 C561.113652,155.911643 562.854357,160.796848 564.12715,166.1875 L542.56465,173.375 C541.516467,170.529934 540.468301,168.077973 539.420118,166.019043 C538.371936,163.960113 536.968141,161.732759 535.208693,159.336914 C533.449244,156.941069 531.371628,155.08806 528.975782,153.777832 C526.579937,152.467604 523.922086,151.8125 521.00215,151.8125 C516.435069,151.8125 512.897507,153.066556 510.389357,155.574707 C507.881206,158.082858 506.62715,161.62042 506.62715,166.1875 C506.62715,170.67971 509.022959,174.722638 513.81465,178.316406 L542.56465,199.878906 C545.784067,202.424492 548.535504,204.876453 550.819044,207.234863 C553.102584,209.593274 555.329938,212.325994 557.501173,215.433105 C559.672408,218.540217 561.319527,222.002911 562.442579,225.821289 C563.565632,229.639668 564.12715,233.72003 564.12715,238.0625 C564.12715,250.341207 560.215242,259.737272 552.39131,266.250977 C544.567377,272.764681 534.104429,276.021484 521.00215,276.021484 Z M615.865626,252.4375 C617.887121,252.4375 619.852433,251.838548 621.761622,250.640625 C623.670812,249.442702 625.112041,248.282232 626.085353,247.15918 C627.058665,246.036127 628.25657,244.538746 629.679103,242.666992 C629.903713,242.292641 630.090886,242.0306 630.240626,241.880859 L630.240626,202.125 C629.042704,202.948572 627.058674,204.221346 624.288478,205.943359 C621.518282,207.665373 619.309645,209.069168 617.662501,210.154785 C616.015358,211.240403 614.031328,212.737783 611.710353,214.646973 C609.389378,216.556162 607.592521,218.390453 606.319728,220.149902 C605.046935,221.909351 603.923899,224.061836 602.950587,226.607422 C601.977275,229.153008 601.490626,231.810859 601.490626,234.581055 C601.490626,246.485411 606.282245,252.4375 615.865626,252.4375 Z M601.490626,276.021484 C593.479519,276.021484 586.685153,272.558791 581.107326,265.633301 C575.529498,258.70781 572.740626,250.902713 572.740626,242.217773 C572.740626,235.254848 573.919814,228.928414 576.278224,223.238281 C578.636634,217.548149 581.12603,212.999854 583.746486,209.593262 C586.366942,206.186669 590.746781,202.667824 596.886134,199.036621 C603.025488,195.405418 607.667368,192.916022 610.811915,191.568359 C613.956462,190.220696 619.421903,188.01206 627.2084,184.942383 C628.556063,184.418292 629.566795,184.006512 630.240626,183.707031 L630.240626,173.375 C630.240626,166.112594 629.229894,160.478698 627.2084,156.473145 C625.186905,152.467591 621.406019,150.464844 615.865626,150.464844 C610.924195,150.464844 607.386633,152.168114 605.252833,155.574707 C603.119034,158.9813 601.902412,163.679332 601.602931,169.668945 C601.528061,170.492517 601.490626,171.727856 601.490626,173.375 L572.740626,173.375 C572.890367,159.598889 576.746122,148.630575 584.308009,140.469727 C591.869896,132.308878 602.388996,128.228516 615.865626,128.228516 C629.267386,128.228516 639.805204,132.36503 647.479396,140.638184 C655.153588,148.911337 658.990626,159.8235 658.990626,173.375 L658.990626,238.0625 C658.990626,253.036533 660.225966,265.01558 662.696681,274 L634.058986,274 L630.240626,252.4375 C628.743223,255.432307 627.526601,257.753247 626.590724,259.400391 C625.654847,261.047534 624.288487,263.087716 622.491603,265.520996 C620.694719,267.954276 618.897862,269.826003 617.100978,271.13623 C615.304094,272.446458 613.058023,273.588211 610.362697,274.561523 C607.667371,275.534836 604.710043,276.021484 601.490626,276.021484 Z M678.497658,274 L678.497658,130.25 L707.247658,130.25 L707.247658,145.748047 C711.515257,141.854798 714.996668,138.878754 717.691994,136.819824 C720.38732,134.760895 724.112055,132.8143 728.86631,130.97998 C733.620566,129.145661 738.692943,128.228516 744.083595,128.228516 C750.222949,128.228516 755.20174,130.474587 759.020119,134.966797 C762.838497,139.459007 764.747658,144.961881 764.747658,151.475586 L764.747658,274 L735.997658,274 L735.997658,166.1875 C735.997658,161.171199 735.286402,157.521333 733.863869,155.237793 C732.441336,152.954253 729.558877,151.8125 725.216408,151.8125 C722.745692,151.8125 720.293731,152.317866 717.860451,153.328613 C715.42717,154.339361 713.611596,155.275224 712.413673,156.13623 C711.215751,156.997237 709.493763,158.363597 707.247658,160.235352 L707.247658,274 L678.497658,274 Z M822.438283,276.021484 C810.608797,276.021484 801.119146,272.502639 793.969045,265.464844 C786.818944,258.427048 781.933739,249.293025 779.313283,238.0625 L800.875783,230.875 C806.041824,245.250072 813.229253,252.4375 822.438283,252.4375 C827.005363,252.4375 830.542925,251.183444 833.051076,248.675293 C835.559226,246.167142 836.813283,242.62958 836.813283,238.0625 C836.813283,231.399055 834.417474,225.858746 829.625783,221.441406 L800.875783,199.878906 C797.656366,197.707671 794.96108,195.66749 792.789845,193.758301 C790.618611,191.849112 788.409974,189.509454 786.163869,186.739258 C783.917764,183.969062 782.214493,180.861996 781.054006,177.417969 C779.893518,173.973941 779.313283,170.230489 779.313283,166.1875 C779.313283,153.908793 783.22519,144.512728 791.049123,137.999023 C798.873055,131.485319 809.336004,128.228516 822.438283,128.228516 C828.652507,128.228516 834.267685,129.22053 839.283986,131.20459 C844.300287,133.188649 848.511671,135.977521 851.918263,139.571289 C855.324856,143.165057 858.132445,147.151834 860.341115,151.531738 C862.549785,155.911643 864.29049,160.796848 865.563283,166.1875 L844.000783,173.375 C842.952601,170.529934 841.904434,168.077973 840.856252,166.019043 C839.808069,163.960113 838.404275,161.732759 836.644826,159.336914 C834.885377,156.941069 832.807761,155.08806 830.411916,153.777832 C828.01607,152.467604 825.358219,151.8125 822.438283,151.8125 C817.871203,151.8125 814.333641,153.066556 811.82549,155.574707 C809.317339,158.082858 808.063283,161.62042 808.063283,166.1875 C808.063283,170.67971 810.459092,174.722638 815.250783,178.316406 L844.000783,199.878906 C847.2202,202.424492 849.971637,204.876453 852.255177,207.234863 C854.538718,209.593274 856.766072,212.325994 858.937306,215.433105 C861.108541,218.540217 862.75566,222.002911 863.878713,225.821289 C865.001765,229.639668 865.563283,233.72003 865.563283,238.0625 C865.563283,250.341207 861.651375,259.737272 853.827443,266.250977 C846.003511,272.764681 835.540562,276.021484 822.438283,276.021484 Z M940.85176,274 L908.50801,130.25 L936.134963,130.25 L956.125197,238.174805 L974.318557,130.25 L1001.94551,130.25 L969.826369,274 L940.85176,274 Z M1083.89395,262.544922 C1077.2305,271.529342 1066.18732,276.021484 1050.76406,276.021484 C1035.34081,276.021484 1024.29763,271.529342 1017.63418,262.544922 C1010.97074,253.560502 1007.63906,240.608158 1007.63906,223.6875 L1007.63906,180.5625 C1007.63906,163.641842 1010.97074,150.689498 1017.63418,141.705078 C1024.29763,132.720658 1035.34081,128.228516 1050.76406,128.228516 C1066.18732,128.228516 1077.2305,132.720658 1083.89395,141.705078 C1090.55739,150.689498 1093.88906,163.641842 1093.88906,180.5625 L1093.88906,223.6875 C1093.88906,240.608158 1090.55739,253.560502 1083.89395,262.544922 Z M1045.37344,251.539062 C1046.94571,252.138024 1048.74257,252.4375 1050.76406,252.4375 C1052.78556,252.4375 1054.5637,252.138024 1056.09854,251.539062 C1057.63338,250.940101 1058.90615,250.210128 1059.9169,249.349121 C1060.92764,248.488114 1061.76992,247.21534 1062.44375,245.530762 C1063.11758,243.846183 1063.64167,242.367519 1064.01602,241.094727 C1064.39037,239.821934 1064.65241,237.987642 1064.80215,235.591797 C1064.95189,233.195952 1065.04548,231.305508 1065.08291,229.92041 C1065.12035,228.535312 1065.13906,226.457696 1065.13906,223.6875 L1065.13906,180.5625 C1065.13906,177.792304 1065.12035,175.714688 1065.08291,174.32959 C1065.04548,172.944492 1064.95189,171.054048 1064.80215,168.658203 C1064.65241,166.262358 1064.39037,164.428066 1064.01602,163.155273 C1063.64167,161.882481 1063.11758,160.403817 1062.44375,158.719238 C1061.76992,157.03466 1060.92764,155.761886 1059.9169,154.900879 C1058.90615,154.039872 1057.63338,153.309899 1056.09854,152.710938 C1054.5637,152.111976 1052.78556,151.8125 1050.76406,151.8125 C1048.74257,151.8125 1046.96443,152.111976 1045.42959,152.710938 C1043.89475,153.309899 1042.62198,154.039872 1041.61123,154.900879 C1040.60049,155.761886 1039.75821,157.03466 1039.08438,158.719238 C1038.41055,160.403817 1037.88646,161.882481 1037.51211,163.155273 C1037.13776,164.428066 1036.87572,166.262358 1036.72598,168.658203 C1036.57624,171.054048 1036.48265,172.944492 1036.44522,174.32959 C1036.40778,175.714688 1036.38906,177.792304 1036.38906,180.5625 L1036.38906,223.6875 C1036.38906,226.457696 1036.40778,228.535312 1036.44522,229.92041 C1036.48265,231.305508 1036.57624,233.195952 1036.72598,235.591797 C1036.87572,237.987642 1037.13776,239.821934 1037.51211,241.094727 C1037.88646,242.367519 1038.41055,243.846183 1039.08438,245.530762 C1039.75821,247.21534 1040.60049,248.488114 1041.61123,249.349121 C1042.62198,250.210128 1043.87604,250.940101 1045.37344,251.539062 Z M1113.5084,108.6875 L1113.5084,79.9375 L1142.2584,79.9375 L1142.2584,108.6875 L1113.5084,108.6875 Z M1113.5084,274 L1113.5084,130.25 L1142.2584,130.25 L1142.2584,274 L1113.5084,274 Z M1204.44121,276.021484 C1193.13582,276.021484 1184.91894,273.139026 1179.79033,267.374023 C1174.66173,261.609021 1172.02259,252.886777 1171.87285,241.207031 L1171.87285,151.8125 L1157.49785,151.8125 L1157.49785,130.25 L1171.87285,130.25 L1171.87285,79.9375 L1200.62285,79.9375 L1200.62285,130.25 L1222.18535,130.25 L1222.18535,151.8125 L1200.62285,151.8125 L1200.62285,235.704102 C1200.62285,241.469104 1201.40898,245.699205 1202.98125,248.394531 C1204.55353,251.089857 1207.73546,252.4375 1212.52715,252.4375 C1214.62352,252.4375 1217.84288,252.063155 1222.18535,251.314453 L1222.18535,274.673828 C1214.99782,275.57227 1209.08316,276.021484 1204.44121,276.021484 Z M1258.53809,276.021484 C1252.24899,276.021484 1247.19533,273.79413 1243.37696,269.339355 C1239.55858,264.884581 1237.64942,259.362989 1237.64942,252.774414 L1237.64942,130.25 L1266.39942,130.25 L1266.39942,244.014648 C1266.39942,247.009455 1267.31656,249.442699 1269.15088,251.314453 C1270.9852,253.186207 1273.36229,254.12207 1276.28223,254.12207 C1277.8545,254.12207 1279.38932,253.934898 1280.88672,253.560547 C1282.38412,253.186196 1283.86279,252.531092 1285.32276,251.595215 C1286.78273,250.659338 1287.92448,249.910647 1288.74805,249.349121 C1289.57162,248.787595 1290.75081,247.833015 1292.28565,246.485352 C1293.82049,245.137689 1294.77507,244.314129 1295.14942,244.014648 L1295.14942,130.25 L1323.89942,130.25 L1323.89942,274 L1295.14942,274 L1295.14942,258.501953 C1292.30435,260.972669 1290.22673,262.769526 1288.91651,263.892578 C1287.60628,265.015631 1285.60353,266.531729 1282.90821,268.440918 C1280.21288,270.350107 1277.83579,271.735184 1275.77686,272.596191 C1273.71793,273.457198 1271.15366,274.243323 1268.08399,274.95459 C1265.01431,275.665856 1261.83238,276.021484 1258.53809,276.021484 Z M1343.63106,274 L1343.63106,130.25 L1372.38106,130.25 L1372.38106,149.454102 C1375.30099,143.763969 1379.54981,138.803895 1385.12764,134.57373 C1390.70547,130.343566 1396.90088,128.228516 1403.71407,128.228516 C1403.93868,128.228516 1405.47349,128.378254 1408.31856,128.677734 L1408.31856,160.459961 C1403.00278,158.363596 1397.68707,157.31543 1392.37129,157.31543 C1386.38168,157.31543 1381.55263,159.112287 1377.88399,162.706055 C1374.21535,166.299823 1372.38106,171.054007 1372.38106,176.96875 L1372.38106,274 L1343.63106,274 Z M1455.78946,276.021484 C1448.82653,276.021484 1442.78086,274.82358 1437.65225,272.427734 C1432.52364,270.031889 1428.44328,266.906107 1425.41104,263.050293 C1422.3788,259.194479 1419.92684,254.253123 1418.05508,248.226074 C1416.18333,242.199026 1414.89184,236.172068 1414.18057,230.14502 C1413.4693,224.117971 1413.03881,217.098998 1412.88907,209.087891 C1412.66446,202.798797 1412.66446,196.509797 1412.88907,190.220703 C1413.11368,182.733687 1413.61904,176.089059 1414.40518,170.286621 C1415.19132,164.484183 1416.55768,158.850288 1418.5043,153.384766 C1420.45092,147.919244 1422.97775,143.427101 1426.08487,139.908203 C1429.19198,136.389305 1433.27234,133.562999 1438.32608,131.429199 C1443.37981,129.295399 1449.27575,128.228516 1456.01407,128.228516 C1462.15342,128.228516 1467.56271,129.033358 1472.24209,130.643066 C1476.92148,132.252775 1480.81467,134.686019 1483.92178,137.942871 C1487.02889,141.199723 1489.61187,144.812155 1491.6708,148.780273 C1493.72973,152.748392 1495.28327,157.558728 1496.33145,163.211426 C1497.37963,168.864123 1498.1096,174.42315 1498.52139,179.888672 C1498.93318,185.354194 1499.13907,191.643194 1499.13907,198.755859 L1499.13907,202.125 L1441.63907,202.125 L1441.63907,213.916992 C1441.48933,216.687188 1441.47061,219.550929 1441.58291,222.508301 C1441.69522,225.465672 1441.82624,228.366848 1441.97598,231.211914 C1442.12572,234.05698 1442.5375,236.770983 1443.21133,239.354004 C1443.88516,241.937025 1444.70872,244.201813 1445.68203,246.148438 C1446.65535,248.095062 1448.02171,249.629877 1449.78116,250.75293 C1451.5406,251.875982 1453.61822,252.4375 1456.01407,252.4375 C1459.00887,252.4375 1461.47955,251.857265 1463.42618,250.696777 C1465.3728,249.53629 1466.81403,247.795585 1467.74991,245.474609 C1468.68578,243.153634 1469.34089,240.832694 1469.71524,238.511719 C1470.08959,236.190744 1470.3142,233.270851 1470.38907,229.751953 L1470.38907,223.6875 L1498.91446,223.6875 L1498.91446,229.415039 C1498.24062,244.763423 1494.45974,256.368125 1487.57168,264.229492 C1480.68363,272.09086 1470.08966,276.021484 1455.78946,276.021484 Z M1441.63907,187.75 L1470.16446,187.75 L1470.16446,179.102539 C1470.08959,175.284161 1469.86498,171.952488 1469.49063,169.107422 C1469.11628,166.262356 1468.46117,163.417332 1467.5253,160.572266 C1466.58942,157.727199 1465.14819,155.555997 1463.20157,154.058594 C1461.25494,152.56119 1458.85913,151.8125 1456.01407,151.8125 C1453.09413,151.8125 1450.64217,152.598625 1448.65811,154.170898 C1446.67405,155.743172 1445.2141,158.00796 1444.27823,160.965332 C1443.34235,163.922704 1442.68724,166.823879 1442.31289,169.668945 C1441.93854,172.514012 1441.71394,175.920553 1441.63907,179.888672 L1441.63907,187.75 Z" id="Vivre-sans-voiture" fill="#000000"></path>
                    <path d="M486.53125,427.75 L499.03125,427.75 L492.78125,390.25 L486.53125,427.75 Z M467.78125,459 L486.53125,371.5 L499.03125,371.5 L517.78125,459 L505.28125,459 L500.59375,437.125 L484.96875,437.125 L480.28125,459 L467.78125,459 Z M524.075391,459 L524.075391,396.5 L536.575391,396.5 L536.575391,404.849609 C537.844928,402.375639 539.69224,400.219085 542.117383,398.379883 C544.542525,396.540681 547.236183,395.621094 550.198437,395.621094 C550.296094,395.621094 550.963405,395.686197 552.200391,395.816406 L552.200391,409.634766 C549.889181,408.723303 547.578006,408.267578 545.266797,408.267578 C542.662617,408.267578 540.563029,409.04882 538.967969,410.611328 C537.372909,412.173836 536.575391,414.240873 536.575391,416.8125 L536.575391,459 L524.075391,459 Z M575.047266,459.878906 C570.131876,459.878906 566.559321,458.625664 564.329492,456.119141 C562.099663,453.612618 560.952214,449.820338 560.887109,444.742188 L560.887109,405.875 L554.637109,405.875 L554.637109,396.5 L560.887109,396.5 L560.887109,374.625 L573.387109,374.625 L573.387109,396.5 L582.762109,396.5 L582.762109,405.875 L573.387109,405.875 L573.387109,442.349609 C573.387109,444.856132 573.728903,446.695307 574.4125,447.867188 C575.096097,449.039068 576.479547,449.625 578.562891,449.625 C579.474354,449.625 580.874079,449.462241 582.762109,449.136719 L582.762109,459.292969 C579.637094,459.683596 577.065505,459.878906 575.047266,459.878906 Z M591.692969,459 L591.692969,371.5 L604.192969,371.5 L604.192969,403.238281 C606.048447,401.545564 607.562104,400.251632 608.733984,399.356445 C609.905865,398.461259 611.525315,397.614913 613.592383,396.817383 C615.65945,396.019853 617.864832,395.621094 620.208594,395.621094 C622.877878,395.621094 625.04257,396.597646 626.702734,398.550781 C628.362899,400.503916 629.192969,402.89647 629.192969,405.728516 L629.192969,459 L616.692969,459 L616.692969,412.125 C616.692969,409.976552 616.424417,408.397792 615.887305,407.388672 C615.350193,406.379552 614.186467,405.875 612.396094,405.875 C609.857019,405.875 607.122671,407.095691 604.192969,409.537109 L604.192969,459 L591.692969,459 Z M648.866016,459.878906 C646.131627,459.878906 643.934383,458.910491 642.274219,456.973633 C640.614054,455.036774 639.783984,452.636082 639.783984,449.771484 L639.783984,396.5 L652.283984,396.5 L652.283984,445.962891 C652.283984,447.26498 652.682743,448.322913 653.480273,449.136719 C654.277803,449.950525 655.311322,450.357422 656.580859,450.357422 C657.264457,450.357422 657.931768,450.276042 658.582812,450.113281 C659.233857,449.95052 659.876755,449.665692 660.511523,449.258789 C661.146292,448.851886 661.642707,448.526368 662.000781,448.282227 C662.358856,448.038085 662.871546,447.62305 663.538867,447.037109 C664.206188,446.451169 664.621223,446.0931 664.783984,445.962891 L664.783984,396.5 L677.283984,396.5 L677.283984,459 L664.783984,459 L664.783984,452.261719 C663.546999,453.335943 662.643688,454.117185 662.074023,454.605469 C661.504359,455.093752 660.6336,455.752926 659.461719,456.583008 C658.289838,457.41309 657.25632,458.015298 656.361133,458.389648 C655.465946,458.763999 654.351048,459.105793 653.016406,459.415039 C651.681764,459.724285 650.298314,459.878906 648.866016,459.878906 Z M687.923828,459 L687.923828,396.5 L700.423828,396.5 L700.423828,404.849609 C701.693366,402.375639 703.540678,400.219085 705.96582,398.379883 C708.390963,396.540681 711.084621,395.621094 714.046875,395.621094 C714.144532,395.621094 714.811843,395.686197 716.048828,395.816406 L716.048828,409.634766 C713.737619,408.723303 711.426444,408.267578 709.115234,408.267578 C706.511055,408.267578 704.411466,409.04882 702.816406,410.611328 C701.221346,412.173836 700.423828,414.240873 700.423828,416.8125 L700.423828,459 L687.923828,459 Z M742.211328,459 L742.211328,371.5 L754.711328,371.5 L754.711328,449.625 L776.586328,449.625 L776.586328,459 L742.211328,459 Z M798.798437,449.625 C799.677348,449.625 800.531832,449.364586 801.361914,448.84375 C802.191996,448.322914 802.818618,447.818362 803.241797,447.330078 C803.664976,446.841794 804.185804,446.190759 804.804297,445.376953 C804.901954,445.214192 804.983333,445.100261 805.048437,445.035156 L805.048437,427.75 C804.527602,428.108075 803.66498,428.661455 802.460547,429.410156 C801.256114,430.158858 800.295837,430.769203 799.579687,431.241211 C798.863538,431.713219 798.000916,432.364254 796.991797,433.194336 C795.982677,434.024418 795.201435,434.821936 794.648047,435.586914 C794.094659,436.351892 793.606382,437.287755 793.183203,438.394531 C792.760024,439.501308 792.548437,440.656895 792.548437,441.861328 C792.548437,447.037135 794.63175,449.625 798.798437,449.625 Z M792.548437,459.878906 C789.065347,459.878906 786.111275,458.373387 783.686133,455.362305 C781.26099,452.351222 780.048437,448.957701 780.048437,445.181641 C780.048437,442.154282 780.561128,439.403658 781.586523,436.929688 C782.611919,434.455717 783.694265,432.478198 784.833594,430.99707 C785.972922,429.515943 787.8772,427.98601 790.546484,426.407227 C793.215769,424.828443 795.233978,423.746097 796.601172,423.160156 C797.968366,422.574216 800.344645,421.613939 803.730078,420.279297 C804.316019,420.051431 804.755467,419.872396 805.048437,419.742188 L805.048437,415.25 C805.048437,412.092432 804.608989,409.642912 803.730078,407.901367 C802.851167,406.159822 801.207304,405.289062 798.798437,405.289062 C796.649989,405.289062 795.111919,406.029615 794.18418,407.510742 C793.256441,408.991869 792.727475,411.034492 792.597266,413.638672 C792.564713,413.996747 792.548437,414.533851 792.548437,415.25 L780.048437,415.25 C780.113542,409.260387 781.789957,404.491554 785.077734,400.943359 C788.365511,397.395165 792.939033,395.621094 798.798437,395.621094 C804.62529,395.621094 809.206949,397.419578 812.543555,401.016602 C815.88016,404.613625 817.548437,409.358043 817.548437,415.25 L817.548437,443.375 C817.548437,449.885449 818.085541,455.09373 819.159766,459 L806.708594,459 L805.048437,449.625 C804.397393,450.92709 803.868426,451.936194 803.461523,452.652344 C803.05462,453.368493 802.460551,454.255529 801.679297,455.313477 C800.898043,456.371425 800.116801,457.185219 799.335547,457.754883 C798.554293,458.324547 797.57774,458.820961 796.405859,459.244141 C795.233978,459.66732 793.948184,459.878906 792.548437,459.878906 Z M843.715625,459.878906 C840.688266,459.878906 838.059712,459.374354 835.829883,458.365234 C833.600054,457.356115 831.817845,456.037769 830.483203,454.410156 C829.148561,452.782544 828.074353,450.707369 827.260547,448.18457 C826.446741,445.661771 825.885223,443.13901 825.575977,440.616211 C825.26673,438.093412 825.079558,435.155616 825.014453,431.802734 C824.916796,429.100898 824.916796,426.382826 825.014453,423.648438 C825.079558,420.328108 825.26673,417.39845 825.575977,414.859375 C825.885223,412.3203 826.454879,409.789401 827.284961,407.266602 C828.115043,404.743802 829.189251,402.676766 830.507617,401.06543 C831.825983,399.454094 833.600054,398.143885 835.829883,397.134766 C838.059712,396.125646 840.688266,395.621094 843.715625,395.621094 C850.291179,395.621094 855.011184,397.395165 857.875781,400.943359 C860.740379,404.491554 862.270311,409.748663 862.465625,416.714844 L862.465625,418.375 L849.965625,418.375 L849.965625,416.617188 C849.933073,415.05468 849.82728,413.687506 849.648242,412.515625 C849.469205,411.343744 849.176239,410.171881 848.769336,409 C848.362433,407.828119 847.727674,406.924808 846.865039,406.290039 C846.002405,405.65527 844.95261,405.337891 843.715625,405.337891 C842.47864,405.337891 841.436983,405.704098 840.590625,406.436523 C839.744267,407.168949 839.101369,408.218743 838.661914,409.585938 C838.222459,410.953132 837.905079,412.360995 837.709766,413.80957 C837.514452,415.258145 837.400521,416.926423 837.367969,418.814453 C837.23776,422.850932 837.23776,428.93811 837.367969,437.076172 C837.433073,438.866545 837.56328,440.437168 837.758594,441.788086 C837.953907,443.139004 838.271287,444.441074 838.710742,445.694336 C839.150197,446.947597 839.793095,447.916012 840.639453,448.599609 C841.485811,449.283207 842.511192,449.625 843.715625,449.625 C844.822401,449.625 845.77454,449.413414 846.57207,448.990234 C847.3696,448.567055 847.979946,448.046227 848.403125,447.427734 C848.826304,446.809242 849.15996,445.979172 849.404102,444.9375 C849.648243,443.895828 849.802864,442.927413 849.867969,442.032227 C849.933073,441.13704 849.965625,440.005866 849.965625,438.638672 L849.965625,437.125 L862.465625,437.125 L862.465625,438.736328 C862.367968,442.024105 861.961071,444.929349 861.244922,447.452148 C860.528772,449.974948 859.446426,452.180329 857.997852,454.068359 C856.549277,455.95639 854.628723,457.396805 852.236133,458.389648 C849.843543,459.382492 847.003402,459.878906 843.715625,459.878906 Z M902.011719,454.019531 C899.114569,457.925801 894.313185,459.878906 887.607422,459.878906 C880.901659,459.878906 876.100275,457.925801 873.203125,454.019531 C870.305975,450.113262 868.857422,444.481808 868.857422,437.125 L868.857422,418.375 C868.857422,411.018192 870.305975,405.386738 873.203125,401.480469 C876.100275,397.574199 880.901659,395.621094 887.607422,395.621094 C894.313185,395.621094 899.114569,397.574199 902.011719,401.480469 C904.908869,405.386738 906.357422,411.018192 906.357422,418.375 L906.357422,437.125 C906.357422,444.481808 904.908869,450.113262 902.011719,454.019531 Z M885.263672,449.234375 C885.947269,449.494793 886.728511,449.625 887.607422,449.625 C888.486332,449.625 889.259437,449.494793 889.926758,449.234375 C890.594079,448.973957 891.147459,448.656577 891.586914,448.282227 C892.026369,447.907876 892.392577,447.354496 892.685547,446.62207 C892.978517,445.889645 893.206379,445.246748 893.369141,444.693359 C893.531902,444.139971 893.645833,443.342453 893.710937,442.300781 C893.776042,441.259109 893.816732,440.437177 893.833008,439.834961 C893.849284,439.232744 893.857422,438.329433 893.857422,437.125 L893.857422,418.375 C893.857422,417.170567 893.849284,416.267256 893.833008,415.665039 C893.816732,415.062823 893.776042,414.240891 893.710937,413.199219 C893.645833,412.157547 893.531902,411.360029 893.369141,410.806641 C893.206379,410.253252 892.978517,409.610355 892.685547,408.87793 C892.392577,408.145504 892.026369,407.592124 891.586914,407.217773 C891.147459,406.843423 890.594079,406.526043 889.926758,406.265625 C889.259437,406.005207 888.486332,405.875 887.607422,405.875 C886.728511,405.875 885.955407,406.005207 885.288086,406.265625 C884.620765,406.526043 884.067385,406.843423 883.62793,407.217773 C883.188474,407.592124 882.822267,408.145504 882.529297,408.87793 C882.236327,409.610355 882.008464,410.253252 881.845703,410.806641 C881.682942,411.360029 881.569011,412.157547 881.503906,413.199219 C881.438802,414.240891 881.398112,415.062823 881.381836,415.665039 C881.36556,416.267256 881.357422,417.170567 881.357422,418.375 L881.357422,437.125 C881.357422,438.329433 881.36556,439.232744 881.381836,439.834961 C881.398112,440.437177 881.438802,441.259109 881.503906,442.300781 C881.569011,443.342453 881.682942,444.139971 881.845703,444.693359 C882.008464,445.246748 882.236327,445.889645 882.529297,446.62207 C882.822267,447.354496 883.188474,447.907876 883.62793,448.282227 C884.067385,448.656577 884.612627,448.973957 885.263672,449.234375 Z M932.817578,459.878906 C927.674323,459.878906 923.548388,458.348974 920.439648,455.289062 C917.330909,452.229151 915.206907,448.257837 914.067578,443.375 L923.442578,440.25 C925.688683,446.500031 928.813652,449.625 932.817578,449.625 C934.803265,449.625 936.341336,449.079758 937.431836,447.989258 C938.522336,446.898758 939.067578,445.360687 939.067578,443.375 C939.067578,440.47785 938.025922,438.06902 935.942578,436.148438 L923.442578,426.773438 C922.042832,425.829422 920.870968,424.942387 919.926953,424.112305 C918.982938,423.282222 918.022661,422.26498 917.046094,421.060547 C916.069526,419.856114 915.328974,418.505216 914.824414,417.007812 C914.319854,415.510409 914.067578,413.882821 914.067578,412.125 C914.067578,406.786432 915.768407,402.701186 919.170117,399.869141 C922.571827,397.037095 927.120935,395.621094 932.817578,395.621094 C935.519415,395.621094 937.960796,396.052405 940.141797,396.915039 C942.322797,397.777674 944.153834,398.990227 945.634961,400.552734 C947.116088,402.115242 948.336779,403.848623 949.29707,405.75293 C950.257362,407.657236 951.01419,409.781238 951.567578,412.125 L942.192578,415.25 C941.736847,414.013015 941.281122,412.946945 940.825391,412.051758 C940.369659,411.156571 939.759314,410.188156 938.994336,409.146484 C938.229358,408.104812 937.326047,407.299156 936.284375,406.729492 C935.242703,406.159828 934.087116,405.875 932.817578,405.875 C930.831891,405.875 929.293821,406.420242 928.20332,407.510742 C927.11282,408.601242 926.567578,410.139313 926.567578,412.125 C926.567578,414.078135 927.609234,415.83593 929.692578,417.398438 L942.192578,426.773438 C943.592325,427.880214 944.788602,428.946284 945.781445,429.97168 C946.774289,430.997075 947.742704,432.185215 948.686719,433.536133 C949.630734,434.887051 950.346873,436.39257 950.835156,438.052734 C951.32344,439.712899 951.567578,441.48697 951.567578,443.375 C951.567578,448.713568 949.866749,452.798814 946.465039,455.630859 C943.063329,458.462905 938.514221,459.878906 932.817578,459.878906 Z M976.31875,459.878906 C971.403361,459.878906 967.830805,458.625664 965.600977,456.119141 C963.371148,453.612618 962.223698,449.820338 962.158594,444.742188 L962.158594,405.875 L955.908594,405.875 L955.908594,396.5 L962.158594,396.5 L962.158594,374.625 L974.658594,374.625 L974.658594,396.5 L984.033594,396.5 L984.033594,405.875 L974.658594,405.875 L974.658594,442.349609 C974.658594,444.856132 975.000387,446.695307 975.683984,447.867188 C976.367582,449.039068 977.751031,449.625 979.834375,449.625 C980.745838,449.625 982.145563,449.462241 984.033594,449.136719 L984.033594,459.292969 C980.908578,459.683596 978.336989,459.878906 976.31875,459.878906 Z M1010.64023,459.878906 C1007.61288,459.878906 1004.98432,459.358078 1002.75449,458.316406 C1000.52466,457.274734 998.750592,455.915698 997.432227,454.239258 C996.113861,452.562817 995.04779,450.414401 994.233984,447.793945 C993.420178,445.17349 992.85866,442.553073 992.549414,439.932617 C992.240168,437.312161 992.052995,434.260434 991.987891,430.777344 C991.890234,428.042955 991.890234,425.308607 991.987891,422.574219 C992.085547,419.318994 992.305272,416.430026 992.64707,413.907227 C992.988869,411.384427 993.582938,408.934908 994.429297,406.558594 C995.275655,404.18228 996.374277,402.229174 997.725195,400.699219 C999.076113,399.169263 1000.85018,397.940434 1003.04746,397.012695 C1005.24474,396.084956 1007.80819,395.621094 1010.73789,395.621094 C1013.40717,395.621094 1015.75904,395.971025 1017.79355,396.670898 C1019.82807,397.370772 1021.52076,398.428704 1022.87168,399.844727 C1024.2226,401.260749 1025.34563,402.831372 1026.24082,404.556641 C1027.13601,406.28191 1027.81146,408.37336 1028.26719,410.831055 C1028.72292,413.288749 1029.0403,415.705717 1029.21934,418.082031 C1029.39837,420.458345 1029.48789,423.192693 1029.48789,426.285156 L1029.48789,427.75 L1004.48789,427.75 L1004.48789,432.876953 C1004.42279,434.081386 1004.41465,435.326491 1004.46348,436.612305 C1004.5123,437.898118 1004.56927,439.159499 1004.63437,440.396484 C1004.69948,441.63347 1004.87851,442.813471 1005.17148,443.936523 C1005.46445,445.059576 1005.82252,446.044267 1006.2457,446.890625 C1006.66888,447.736983 1007.26295,448.404294 1008.02793,448.892578 C1008.79291,449.380862 1009.69622,449.625 1010.73789,449.625 C1012.03998,449.625 1013.11419,449.372724 1013.96055,448.868164 C1014.80691,448.363604 1015.43353,447.606776 1015.84043,446.597656 C1016.24733,445.588537 1016.53216,444.579432 1016.69492,443.570312 C1016.85768,442.561193 1016.95534,441.291674 1016.98789,439.761719 L1016.98789,437.125 L1029.39023,437.125 L1029.39023,439.615234 C1029.09726,446.288445 1027.4534,451.333967 1024.45859,454.751953 C1021.46379,458.169939 1016.85771,459.878906 1010.64023,459.878906 Z M1004.48789,421.5 L1016.89023,421.5 L1016.89023,417.740234 C1016.85768,416.08007 1016.76003,414.631517 1016.59727,413.394531 C1016.4345,412.157546 1016.14968,410.920579 1015.74277,409.683594 C1015.33587,408.446608 1014.70925,407.502607 1013.86289,406.851562 C1013.01653,406.200518 1011.97488,405.875 1010.73789,405.875 C1009.46835,405.875 1008.40228,406.216793 1007.53965,406.900391 C1006.67701,407.583988 1006.04225,408.568678 1005.63535,409.854492 C1005.22845,411.140306 1004.94362,412.401687 1004.78086,413.638672 C1004.6181,414.875657 1004.52044,416.356762 1004.48789,418.082031 L1004.48789,421.5 Z" id="Arthur-Lacoste" fill="#D6742E"></path>
                </g>
            </g>
            <rect id="Rectangle-path-Copy-5" stroke="#110000" stroke-width="100" fill-rule="nonzero" x="50.6" y="50.1" width="2908.5" height="4537.4"></rect>
        </g>
    </g>
</svg>