<?xml version="1.0" encoding="UTF-8"?>
<svg width="3010px" height="4638px" viewBox="0 0 3010 4638" version="1.1" xmlns="http://www.w3.org/2000/svg" xmlns:xlink="http://www.w3.org/1999/xlink">
    <!-- Generator: Sketch 47 (45396) - http://www.bohemiancoding.com/sketch -->
    <title>book-cover@1x</title>
    <desc>Created with Sketch.</desc>
    <defs>
        <rect id="path-1" x="50.6" y="50.1" width="2908.5" height="4537.4"></rect>
        <polygon id="path-3" points="0.12135257 933.188407 933.546387 933.188407 933.546387 0.439930996 0.12135257 0.439930996"></polygon>
        <linearGradient x1="-408.263352%" y1="-177.42005%" x2="-320.602198%" y2="-133.916907%" id="linearGradient-5">
            <stop stop-color="#FFFFFF" offset="0%"></stop>
            <stop stop-color="#C4C4C4" offset="43.91%"></stop>
            <stop stop-color="#F8F8F8" offset="100%"></stop>
        </linearGradient>
    </defs>
    <g id="Page-1" stroke="none" stroke-width="1" fill="none" fill-rule="evenodd">
        <g id="cover-svg">
            <rect id="Rectangle-path-Copy" stroke="#110000" stroke-width="100" fill="#FFFFFF" fill-rule="nonzero" x="50.6" y="50.1" width="2908.5" height="4537.4"></rect>
            <mask id="mask-2" fill="white">
                <use xlink:href="#path-1"></use>
            </mask>
            <g id="Mask" fill-rule="nonzero"></g>
            <g id="Bicycle" mask="url(#mask-2)">
                <g transform="translate(2560.000000, 2245.500000) scale(-1, 1) translate(-2560.000000, -2245.500000) translate(1364.000000, 1491.000000)">
                    <polygon id="Fill-1" fill="#D1D1D1" fill-rule="nonzero" points="2298.05438 894.474024 2293.82804 884.273395 1943.25231 1024.73946 2083.73627 674.225545 2073.53801 670 1924.98402 1017.17388 1776.42573 670 1766.23178 674.225545 1906.71573 1024.73946 1556.14001 884.273395 1551.90937 894.474024 1899.14443 1043.0043 1551.90937 1191.52598 1556.14001 1201.7309 1906.71573 1061.26914 1766.23178 1411.77875 1776.42573 1416 1924.98402 1068.83472 2073.53801 1416 2083.73627 1411.77875 1943.25231 1061.26914 2293.82804 1201.7309 2298.05438 1191.52598 1950.81071 1043.0043"></polygon>
                    <path d="M1239.75303,1196.86712 C1238.63359,1200.66929 1234.65955,1202.8302 1230.87927,1201.69994 L1100.83411,1162.82085 C1097.05814,1161.6906 1094.90536,1157.69356 1096.02911,1153.89573 L1097.13994,1150.13254 C1098.268,1146.3347 1102.24203,1144.16946 1106.0137,1145.29972 L1236.06317,1184.1788 C1239.83914,1185.31339 1241.99192,1189.30609 1240.86817,1193.10393 L1239.75303,1196.86712 Z" id="Fill-2" fill="#CACBCA" fill-rule="nonzero"></path>
                    <path d="M1351.3716,1205.40513 C1351.3716,1208.49225 1348.19613,1211 1344.2803,1211 L1240.12756,1211 C1236.20744,1211 1233.03625,1208.49225 1233.03625,1205.40513 L1233.03625,1186.59064 C1233.03625,1183.50775 1236.20744,1181 1240.12756,1181 L1344.2803,1181 C1348.19613,1181 1351.3716,1183.50775 1351.3716,1186.59064 L1351.3716,1205.40513 Z" id="Fill-4" fill="#656565" fill-rule="nonzero"></path>
                    <path d="M1291.30476,1206 C1285.56172,1206 1280.91239,1201.29506 1280.91239,1195.5021 C1280.91239,1189.70494 1285.56172,1185 1291.30476,1185 C1297.03949,1185 1301.68882,1189.70494 1301.68882,1195.5021 C1301.68882,1201.29506 1297.03949,1206 1291.30476,1206 Z" id="Fill-6" fill="#656565" fill-rule="nonzero"></path>
                    <polygon id="Fill-12" fill="#F58434" fill-rule="nonzero" points="1639.72608 505 1077.66465 1102.68829 1089.68543 1131 1114.69431 1116.36268 1665.7281 534.317622"></polygon>
                    <path d="M746.145015,267.51902 L761.688615,306.775279 L796.311374,298.781651 L843.370728,447.148352 C843.370728,447.148352 862.012763,452.474579 876.223565,436.487324 L830.051315,292.563432 C830.051315,292.563432 820.284603,267.797768 791.875856,272.184828 L781.804871,251 L746.145015,267.51902 Z" id="Fill-14" fill="#D1D1D1" fill-rule="nonzero"></path>
                    <path d="M890.129985,226.956821 C900.738627,227.558789 910.403991,230.158778 926.05206,226.833012 C926.05206,226.833012 951.929738,224.181792 934.080687,201.187472 C934.080687,201.187472 915.344353,170.12422 859.131042,179.905131 L834.140649,183.495592 C834.140649,183.495592 748.483296,192.341532 686.015926,183.495592 C686.015926,183.495592 628.915332,171.114692 608.387201,192.341532 C608.387201,192.341532 594.104515,210.917152 619.090601,223.298052 L703.864977,271.058442 C703.864977,271.058442 737.771281,279.182874 791.314126,247.701233 C791.314126,247.701233 819.310948,235.486835 848.104602,229.757466 C848.104602,229.757466 855.560371,225.001493 890.129985,226.956821" id="Fill-16" fill="#644633" fill-rule="nonzero"></path>
                    <path d="M1046.04834,1041.28682 C1046.04834,1041.28682 1065.39909,1121.99335 1051.1851,1130 L1087.60121,1121.99335 C1087.60121,1121.99335 1070.03418,1097.06277 1066.83121,1037 L1046.04834,1041.28682 Z" id="Fill-18" fill="#D1D1D1" fill-rule="nonzero"></path>
                    <path d="M1469.35919,903 L1448.93051,896.752541 C1479.40382,797.059602 1542.30953,707.47689 1626.07783,644.516773 C1712.69025,579.412583 1815.89908,545 1924.54697,545 C2082.53731,545 2232.62254,621.21126 2326.0574,748.871674 L2308.82514,761.4869 C2219.39868,639.309125 2075.74493,566.363387 1924.54697,566.363387 C1713.82016,566.363387 1530.89439,701.646215 1469.35919,903" id="Fill-20" fill="#F58434" fill-rule="nonzero"></path>
                    <g id="Group-24" stroke-width="1" fill="none" fill-rule="evenodd" transform="translate(1457.963746, 575.000000)">
                        <g id="Fill-22-Clipped">
                            <mask id="mask-4" fill="white">
                                <use xlink:href="#path-3"></use>
                            </mask>
                            <g id="path-1"></g>
                            <path d="M466.83172,28.9225388 C225.207995,28.9225388 28.6248169,225.357577 28.6248169,466.813095 C28.6248169,708.264317 225.207995,904.707948 466.83172,904.707948 C708.464045,904.707948 905.042923,708.264317 905.042923,466.813095 C905.042923,225.357577 708.464045,28.9225388 466.83172,28.9225388 M466.83172,933.190556 C209.483576,933.190556 0.12135257,723.972932 0.12135257,466.813095 C0.12135257,209.653258 209.483576,0.439930996 466.83172,0.439930996 C724.184163,0.439930996 933.546387,209.653258 933.546387,466.813095 C933.546387,723.972932 724.184163,933.190556 466.83172,933.190556" id="Fill-22" fill="#656565" fill-rule="nonzero" mask="url(#mask-4)"></path>
                        </g>
                    </g>
                    <path d="M1924.52591,614.798954 C1688.53738,614.798954 1496.55064,806.661713 1496.55064,1042.50215 C1496.55064,1278.33829 1688.53738,1470.20534 1924.52591,1470.20534 C2160.51445,1470.20534 2352.50549,1278.33829 2352.50549,1042.50215 C2352.50549,806.661713 2160.51445,614.798954 1924.52591,614.798954 M1924.52591,1488 C1678.721,1488 1478.74018,1288.14833 1478.74018,1042.50215 C1478.74018,796.851672 1678.721,597 1924.52591,597 C2170.33513,597 2370.32024,796.851672 2370.32024,1042.50215 C2370.32024,1288.14833 2170.33513,1488 1924.52591,1488" id="Fill-25" fill="#D1D1D1" fill-rule="nonzero"></path>
                    <path d="M1924.52591,654.369216 C1710.42938,654.369216 1536.24623,828.481269 1536.24623,1042.5 C1536.24623,1256.52303 1710.42938,1430.63508 1924.52591,1430.63508 C2138.63105,1430.63508 2312.8099,1256.52303 2312.8099,1042.5 C2312.8099,828.481269 2138.63105,654.369216 1924.52591,654.369216 M1924.52591,1452 C1698.65095,1452 1514.87311,1268.30123 1514.87311,1042.5 C1514.87311,816.703063 1698.65095,633 1924.52591,633 C2150.41807,633 2334.18731,816.703063 2334.18731,1042.5 C2334.18731,1268.30123 2150.41807,1452 1924.52591,1452" id="Fill-27" fill="#F58434" fill-rule="nonzero"></path>
                    <polygon id="Fill-29" fill="#F58434" fill-rule="nonzero" points="877.126888 457.789641 1606.11092 388.561727 1618.20428 417.76108 891.565443 489"></polygon>
                    <path d="M1691.9067,538 C1691.02933,538 1690.16487,537.565858 1689.65308,536.770647 C1688.85743,535.528398 1689.2187,533.877797 1690.46163,533.082586 C1808.79797,457.305412 1802.20055,337.636882 1802.11883,336.437618 C1803.27575,206.216421 1650.36103,98.9359903 1648.81274,97.8656791 C1647.59992,97.031782 1647.29886,95.3639878 1648.13322,94.1561266 C1648.98047,92.9439669 1650.64058,92.6301809 1651.8577,93.4769733 C1653.42319,94.5601798 1808.64744,203.418137 1807.45612,336.278575 C1807.53353,337.305902 1814.42341,460.047816 1693.34316,537.578753 C1692.89588,537.866748 1692.40129,538 1691.9067,538" id="Fill-31" fill="#656565" fill-rule="nonzero"></path>
                    <path d="M1649.43682,411 C1648.33624,411 1647.30472,410.322261 1646.91628,409.228441 C1646.41562,407.842937 1647.14502,406.320169 1648.53909,405.822588 C1748.07919,370.511522 1781.98144,284.434366 1782.31377,283.567889 C1826.17305,173.430994 1764.07864,135.524788 1761.40271,133.967704 C1760.12949,133.221333 1759.70652,131.582748 1760.45319,130.317349 C1761.20417,129.047661 1762.84857,128.623002 1764.11748,129.365083 C1764.81236,129.768295 1832.93623,170.943091 1787.31171,285.493869 C1786.98801,286.347477 1752.20098,374.715221 1650.34319,410.845578 C1650.04538,410.952816 1649.73894,411 1649.43682,411" id="Fill-33" fill="#656565" fill-rule="nonzero"></path>
                    <polygon id="Fill-35" fill="#D1D1D1" fill-rule="nonzero" points="1575.39577 96 1638.6284 96 1638.6284 70 1575.39577 70"></polygon>
                    <path d="M1580.81571,92.7155418 C1580.81571,96.7380398 1577.65399,100 1573.74983,100 L1464.13484,100 C1460.22641,100 1457.06042,96.7380398 1457.06042,92.7155418 L1457.06042,73.2888544 C1457.06042,69.2619602 1460.22641,66 1464.13484,66 L1573.74983,66 C1577.65399,66 1580.81571,69.2619602 1580.81571,73.2888544 L1580.81571,92.7155418 Z" id="Fill-37" fill="#644633" fill-rule="nonzero"></path>
                    <polygon id="Fill-38" fill="#D1D1D1" fill-rule="nonzero" points="1586.10247 342 1540.16616 185.834746 1639.05313 59 1670.24471 68.0372915 1574.58195 195.300345 1614.773 331.129552"></polygon>
                    <path d="M1630.98769,333.752853 C1632.3113,337.470369 1630.35617,341.54973 1626.63191,342.867875 L1584.96,357.587172 C1581.23141,358.905318 1577.13949,356.96256 1575.81156,353.245044 C1574.48363,349.531835 1576.44308,345.452475 1580.17167,344.130022 L1621.83493,329.415033 C1625.55919,328.092579 1629.65976,330.035337 1630.98769,333.752853" id="Fill-39" fill="#D1D1D1" fill-rule="nonzero"></path>
                    <polygon id="Fill-40" fill="#D1D1D1" fill-rule="nonzero" points="1695.36441 55 1762.38369 132.040214 1638.41994 151 1624.17523 132.035925 1634.86413 113.080429 1650.28552 133.224129 1723.23972 120.192493 1673.9995 65.9211796"></polygon>
                    <path d="M1700.9577,34.5 C1700.9577,53.5523031 1685.59112,69 1666.63356,69 C1647.66744,69 1632.30514,53.5523031 1632.30514,34.5 C1632.30514,15.4476969 1647.66744,0 1666.63356,0 C1685.59112,0 1700.9577,15.4476969 1700.9577,34.5" id="Fill-41" fill="#684633" fill-rule="nonzero"></path>
                    <path d="M1921.64067,1026.48504 L1829.55353,897.383933 C1829.55353,897.383933 1804.69094,865.995824 1785.74721,807.520112 L1625.92549,342 L1588.0423,357.427689 L1760.88462,857.038227 C1760.88462,857.038227 1769.17358,886.703556 1796.40199,912.811623 L1902.95409,1035.23642 L1905.59849,1038.41561 C1905.43134,1039.30493 1905.31991,1040.22432 1905.31991,1041.16519 C1905.31991,1049.35806 1911.94593,1056 1920.11917,1056 C1928.29241,1056 1934.91843,1049.35806 1934.91843,1041.16519 C1934.91843,1033.49645 1929.08959,1027.26265 1921.64067,1026.48504" id="Fill-42" fill="#F58434" fill-rule="nonzero"></path>
                    <path d="M1915.94864,1040.00209 C1915.94864,1042.76387 1918.16966,1045 1920.91692,1045 C1923.66004,1045 1925.8852,1042.76387 1925.8852,1040.00209 C1925.8852,1037.24447 1923.66004,1035 1920.91692,1035 C1918.16966,1035 1915.94864,1037.24447 1915.94864,1040.00209" id="Fill-43" fill="#4E4E4E" fill-rule="nonzero"></path>
                    <path d="M1712.22326,560.595231 C1713.64716,564.278136 1711.77911,568.400404 1708.06043,569.813261 L1666.48873,585.526986 C1662.76135,586.935536 1658.58981,585.09193 1657.17026,581.409025 C1655.75072,577.721814 1657.61877,573.595238 1661.32874,572.186688 L1702.90479,556.472963 C1706.62783,555.064413 1710.79936,556.908019 1712.22326,560.595231" id="Fill-44" fill="#D1D1D1" fill-rule="nonzero"></path>
                    <path d="M1667.53474,42.7155418 C1667.53474,46.7380398 1664.36438,50 1660.46435,50 L1550.84985,50 C1546.94129,50 1543.77946,46.7380398 1543.77946,42.7155418 L1543.77946,23.2888544 C1543.77946,19.2663563 1546.94129,16 1550.84985,16 L1660.46435,16 C1664.36438,16 1667.53474,19.2663563 1667.53474,23.2888544 L1667.53474,42.7155418 Z" id="Fill-45" fill="#644633" fill-rule="nonzero"></path>
                    <polygon id="Fill-46" fill="#D1D1D1" fill-rule="nonzero" points="911.038323 555 878.030211 566.261436 885.556961 592 918.679758 580.703847"></polygon>
                    <path d="M875.595382,437 C863.185044,451.265563 842.800604,447.701325 842.800604,447.701325 L878.20921,567 L911.453172,555.825166 L875.595382,437 Z" id="Fill-47" fill="#F58434" fill-rule="nonzero"></path>
                    <polygon id="Fill-48" fill="#D1D1D1" fill-rule="nonzero" points="927.174058 604 893.386707 615.313978 901.035614 641 934.939577 629.65137"></polygon>
                    <polygon id="Fill-49" fill="#F58434" fill-rule="nonzero" points="1083.98792 1122.31499 933.6649 630 899.70997 641.275604 1051.59448 1147"></polygon>
                    <polygon id="Fill-50" fill="#F58434" fill-rule="nonzero" points="919.749733 581 886.160121 592.37959 893.108062 616 926.809668 604.581064"></polygon>
                    <polygon id="Fill-51" fill="#D1D1D1" fill-rule="nonzero" points="846.413897 894.474024 842.196105 884.273395 491.616338 1024.73946 632.097615 674.225545 621.899244 670 473.343539 1017.17388 324.783536 670 314.585164 674.225545 455.070741 1024.73946 104.490974 884.273395 100.268882 894.474024 447.507952 1043.0043 100.268882 1191.52598 104.490974 1201.7309 455.070741 1061.26914 314.585164 1411.77875 324.783536 1416 473.343539 1068.83472 621.899244 1416 632.097615 1411.77875 491.616338 1061.26914 842.196105 1201.7309 846.413897 1191.52598 499.174828 1043.0043"></polygon>
                    <path d="M20.4328694,903 L0,896.752541 C30.4731587,797.059602 93.3785568,707.47689 177.150744,644.516773 C263.762738,579.412583 366.971069,545 475.618427,545 C633.603689,545 783.69248,621.21126 877.126888,748.871674 L859.89471,761.4869 C770.464389,639.309125 626.815646,566.363387 475.618427,566.363387 C264.896943,566.363387 81.9677702,701.646215 20.4328694,903" id="Fill-53" fill="#F58434" fill-rule="nonzero"></path>
                    <path d="M475.597549,604.490223 C234.047364,604.490223 37.5318131,800.977778 37.5318131,1042.49785 C37.5318131,1284.01363 234.047364,1480.50978 475.597549,1480.50978 C717.152032,1480.50978 913.671881,1284.01363 913.671881,1042.49785 C913.671881,800.977778 717.152032,604.490223 475.597549,604.490223 M475.597549,1509 C218.332309,1509 9.03323263,1299.72644 9.03323263,1042.49785 C9.03323263,785.269261 218.332309,576 475.597549,576 C732.862788,576 942.166163,785.269261 942.166163,1042.49785 C942.166163,1299.72644 732.862788,1509 475.597549,1509" id="Fill-54" fill="#656565" fill-rule="nonzero"></path>
                    <path d="M475.599698,614.798954 C239.611161,614.798954 47.6201233,806.661713 47.6201233,1042.50215 C47.6201233,1278.33829 239.611161,1470.20534 475.599698,1470.20534 C711.588234,1470.20534 903.579273,1278.33829 903.579273,1042.50215 C903.579273,806.661713 711.588234,614.798954 475.599698,614.798954 M475.599698,1488 C229.794781,1488 29.8096677,1288.14833 29.8096677,1042.50215 C29.8096677,796.851672 229.794781,597 475.599698,597 C721.408913,597 921.389728,796.851672 921.389728,1042.50215 C921.389728,1288.14833 721.408913,1488 475.599698,1488" id="Fill-55" fill="#D1D1D1" fill-rule="nonzero"></path>
                    <path d="M475.597549,654.369216 C261.495589,654.369216 87.3201239,828.481269 87.3201239,1042.5 C87.3201239,1256.52303 261.495589,1430.63508 475.597549,1430.63508 C689.699508,1430.63508 863.883571,1256.52303 863.883571,1042.5 C863.883571,828.481269 689.699508,654.369216 475.597549,654.369216 M475.597549,1452 C249.712802,1452 65.9425982,1268.30123 65.9425982,1042.5 C65.9425982,816.703063 249.712802,633 475.597549,633 C701.486594,633 885.256798,816.703063 885.256798,1042.5 C885.256798,1268.30123 701.486594,1452 475.597549,1452" id="Fill-56" fill="#F58434" fill-rule="nonzero"></path>
                    <path d="M1038.91947,1234.79773 C1046.34349,1217.0711 1060.81323,1184.99025 1072.53603,1174.30954 C1074.31144,1174.28803 1076.06105,1174.09446 1077.73757,1173.73743 C1077.73757,1173.73743 1103.27671,1180.0822 1140.55154,1215.58707 C1123.33058,1231.78235 1100.17298,1241.74471 1074.72842,1241.74471 C1062.07277,1241.74471 1049.99746,1239.26272 1038.91947,1234.79773 L1038.91947,1234.79773 Z M978.547218,1145.50215 C978.547218,1143.79874 978.594505,1142.10394 978.680481,1140.42204 C999.512433,1143.61808 1034.81412,1150.21663 1045.18281,1159.48214 C1044.56379,1167.14318 1041.06887,1190.55213 1021.81457,1225.81612 C995.768184,1208.57557 978.547218,1179.01972 978.547218,1145.50215 L978.547218,1145.50215 Z M1045.10114,1053.95257 C1049.54179,1075.45594 1056.79385,1116.86253 1049.40423,1127.63787 C1041.02588,1128.93264 1018.26377,1130.76509 981.56927,1121.52539 C989.779965,1089.60369 1013.99507,1064.05687 1045.10114,1053.95257 L1045.10114,1053.95257 Z M1053.81049,1128.22288 C1053.46229,1128.5498 1053.13128,1128.88102 1052.80027,1129.22944 L1052.91634,1128.42505 L1053.81049,1128.22288 Z M1149.41136,1084.94513 C1133.05445,1096.8948 1097.83873,1121.2845 1083.3518,1120.81564 C1080.68655,1116.56572 1068.3877,1094.74833 1064.07601,1049.8575 C1067.57093,1049.47467 1071.12603,1049.25529 1074.72842,1049.25529 C1104.84577,1049.25529 1131.76481,1063.19227 1149.41136,1084.94513 L1149.41136,1084.94513 Z M1099.7517,1147.35181 C1099.7517,1147.35181 1114.75019,1126.48506 1160.12395,1101.29957 C1167.00202,1114.5483 1170.90962,1129.57356 1170.90962,1145.50215 C1170.90962,1166.0807 1164.39695,1185.15801 1153.36195,1200.8199 C1136.81159,1188.37556 1102.44274,1161.10382 1099.7517,1147.35181 L1099.7517,1147.35181 Z M1074.72842,1035 C1023.42662,1035 980.185058,1070.18656 967.838924,1117.71423 C967.24569,1117.53357 966.682548,1117.38731 966.089315,1117.20235 L962.942598,1138.24546 C962.942598,1138.24546 963.518636,1138.31428 964.546048,1138.44333 C964.39559,1140.77906 964.301017,1143.1277 964.301017,1145.50215 C964.301017,1184.2977 984.393577,1218.4605 1014.70867,1238.18304 C1014.6055,1238.3465 1014.51952,1238.50565 1014.41635,1238.67341 L1017.47279,1239.95527 C1034.1736,1250.13271 1053.7761,1256 1074.72842,1256 C1135.62083,1256 1185.16012,1206.4291 1185.16012,1145.50215 C1185.16012,1084.5709 1135.62083,1035 1074.72842,1035 L1074.72842,1035 Z" id="Fill-57" fill="#D1D1D1" fill-rule="nonzero"></path>
                    <path d="M1088.50453,1144.99786 C1088.50453,1153.28377 1081.83422,1160 1073.5997,1160 C1065.36517,1160 1058.69486,1153.28377 1058.69486,1144.99786 C1058.69486,1136.71623 1065.36517,1130 1073.5997,1130 C1081.83422,1130 1088.50453,1136.71623 1088.50453,1144.99786" id="Fill-58" fill="#656565" fill-rule="nonzero"></path>
                    <path d="M854.046969,484 L499.876949,1003.66572 C499.876949,1003.66572 491.868274,1022.3629 458.028074,1023.25263 C458.028074,1023.25263 434.866108,1021.47317 430.416844,1041.06439 C430.416844,1041.06439 425.963281,1060.6556 445.557238,1065.99827 C445.557238,1065.99827 465.146897,1075.79387 488.304564,1052.63945 C488.304564,1052.63945 507.008668,1062.0955 548.866141,1068.05711 L962.093157,1131 L965.652568,1116.06374 L524.818621,1049.07624 C524.818621,1049.07624 492.758127,1040.17036 515.021643,1008.11436 L859.648313,502.275962 L854.046969,484 Z" id="Fill-59" fill="#F58434" fill-rule="nonzero"></path>
                    <path d="M471.573261,996.120689 C427.759723,996.120689 419.365963,1025.87116 419.030556,1027.13887 C407.820242,1081.31971 451.569278,1092.36816 453.431214,1092.81079 L1007.65161,1243.97395 C1029.09182,1250.55747 1049.44841,1253.87501 1068.23977,1253.87501 C1123.39262,1253.87501 1148.2815,1225.13442 1148.5266,1224.8465 L1148.88351,1224.48552 C1194.21928,1183.8327 1180.79872,1125.05372 1180.64822,1124.46498 C1157.02357,1040.54227 1084.64458,1039.57537 1081.57862,1039.57537 L485.316324,997.010238 C480.43573,996.412908 475.873343,996.120689 471.573261,996.120689 M1068.23977,1261 C1048.7389,1261 1027.68569,1257.57502 1005.66497,1250.81531 L451.66818,1099.71232 C451.259672,1099.61348 399.456582,1086.56676 412.094524,1025.51448 C412.223526,1024.9902 422.044914,989 471.573261,989 C476.161449,989 481.016241,989.313706 486.004337,989.923928 L1081.79793,1032.45898 L1081.83663,1032.45898 C1085.4573,1032.45898 1162.54057,1033.81264 1187.54555,1122.67299 C1187.73045,1123.43792 1202.06693,1186.18335 1153.8114,1229.62514 C1151.22705,1232.60319 1125.05675,1261 1068.23977,1261" id="Fill-60" fill="#656565" fill-rule="nonzero"></path>
                    <path d="M551.02719,1020.72072 C551.02719,1020.72072 551.02719,992.657431 577.768467,992 L1080.50878,1012.71123 C1080.50878,1012.71123 1158.95129,1010.03854 1194.60776,1075.91486 C1194.60776,1075.91486 1230.25993,1128.43201 1194.60776,1213 L1174.9014,1204.10105 C1174.9014,1204.10105 1197.27974,1180.95775 1187.29748,1116.17285 C1187.29748,1116.17285 1169.32941,1044.3066 1094.76793,1035.45061 C1094.76793,1035.45061 1042.18033,1031.39001 1019.89665,1038.07175 L551.02719,1020.72072 Z" id="Fill-61" fill="#F58434" fill-rule="nonzero"></path>
                </g>
            </g>
            <g id="Car" mask="url(#mask-2)">
                <g transform="translate(-3175.000000, 1589.000000)">
                    <path d="M18,1136.95477 C18,1136.95477 35.1087536,1218.73807 151.616217,1261.37591 C256.507921,1299.76176 398.389871,1299.60897 422.583538,1285.80526 C446.777204,1272.00154 481.034072,1279.72411 481.034072,1279.72411 C481.034072,1279.72411 1002.6805,1211.76636 965.327258,1219.62426 C912.968874,1230.63842 914.009744,1298.32551 948.577124,1294.8724 C983.14013,1291.41929 3222.08645,1171.23705 3329.57595,1264.15237 C3405.32767,1291.48914 3374.11469,1261.15327 3374.11469,1261.15327 L3965.1539,1205.95151 C3965.1539,1205.95151 4202.67756,1199.05839 4239.60836,1136.95477 C4276.53916,1074.85116 4287.77583,1034.74331 4287.77583,1034.74331 C4287.77583,1034.74331 4124.13586,1119.70231 4044.64488,1130.05291 C3965.1539,1140.40352 3197.84467,1119.69795 3180.56098,1116.2492 C3163.27729,1112.80046 2357.95006,1071.39804 2357.95006,1071.39804 C2357.95006,1071.39804 1476.58248,1078.2999 1473.12311,1057.5987 C1469.66812,1036.89749 854.439618,1136.94604 861.349595,1123.15106 C868.259572,1109.35171 249.571704,1105.8986 249.571704,1105.8986 L18,1136.95477 Z" id="Shape" fill="#222223" fill-rule="nonzero"></path>
                    <path d="M1255,434.459986 C1264.91267,427.034448 1703.50113,60.4733113 2444.39311,28.2755803 C3185.28072,-3.9221506 3784.93361,211.553963 3789.88775,223.935689 C3794.84627,236.326155 3634.52519,386.720633 3506.54817,424.211082 C3378.55803,461.701531 1259.95852,484 1259.95852,484 L1255,434.459986 Z" id="Shape" fill="#222223" fill-rule="nonzero"></path>
                    <path d="M1592.25847,463.987348 C1592.25847,463.987348 1452.71955,586.02351 1609.3072,463.987348 C1963.66537,187.807386 2638.31924,133.251536 3139.1924,259.410571 C3142.59952,382.160138 3135.78528,395.798007 3135.78528,395.798007 L3203.92772,399.207474 L3210.74633,269.638972 C3210.74633,269.638972 3421.99226,313.966421 3500.36481,351.470558 C3578.73736,388.974696 3527.62179,429.892677 3527.62179,429.892677 L1885.29719,539 L1592.25847,463.987348 Z" id="Shape" fill="#5CADCE" fill-rule="nonzero"></path>
                    <g id="Group" stroke-width="1" fill="none" fill-rule="evenodd" transform="translate(155.000000, 601.000000)">
                        <path d="M3046.87371,588.585592 C3052.88267,586.573901 3131.14784,562.494845 3145.19061,560.496275 C3159.23339,558.484585 3799.31883,532.406958 3797.30709,532.406958 C3795.30848,532.406958 3879.57387,566.518225 3879.57387,566.518225 C3879.57387,566.518225 3929.736,516.357169 3929.736,510.335218 C3929.736,504.313268 3823.3984,90.9852887 3823.3984,90.9852887 L3319.74784,28.7847042 C3319.74784,28.7847042 3040.85163,133.117077 3032.82219,143.149289 C3024.79275,153.1815 2926.47584,383.931106 2926.47584,383.931106 L3046.87371,588.585592 Z" id="Shape" fill="#000000" fill-rule="nonzero"></path>
                    </g>
                    <g id="Group" stroke-width="1" fill="none" fill-rule="evenodd">
                        <path d="M4329.09864,789.326366 C4295.68952,745.44072 4279.6388,651.15522 4286.03722,610.491701 C4292.43564,569.841299 4280.34293,517.605226 4280.34293,517.605226 C4280.34293,517.605226 4262.03986,431.30728 4245.03134,414.143 C4228.00533,396.965604 4252.57999,392.541189 4276.97096,379.377244 C4301.37069,366.204555 4280.46976,353.079957 4264.55461,352.577183 C4248.64822,352.074409 4219.03966,349.905921 4219.03966,349.905921 C4173.83086,346.657561 4062.07059,295.387689 3729.55822,180.505927 C3397.06771,65.6547683 3042.40359,-26.2436463 2390.5037,8.39532317 C1738.58631,43.0430366 1334.3224,374.638049 1242.88576,423.50772 C1151.44912,472.390506 1093.44347,442.691841 1093.44347,442.691841 C1093.44347,442.691841 1093.44347,442.691841 1054.50625,445.463659 C974.427578,442.84486 945.785566,447.474756 765.873145,483.622049 C521.875916,494.298354 332.324313,563.453878 245.252422,626.615457 C112.407542,655.741396 17.4021325,733.400366 17.4021325,733.400366 C-6.95822892,757.135689 3.51628916,753.039171 0.223048193,771.261463 C-3.07019277,789.488128 31.1480241,920.498018 31.1480241,920.498018 C31.1480241,920.498018 3.60813253,1002.73879 22.8252651,1010.55147 C42.0423976,1018.3554 47.6798313,1028.24038 63.8661325,1068.7946 C-35.954494,1122.3991 21.814988,1152.19395 65.8823133,1177.70428 C109.954012,1203.20587 225.864723,1233.76144 284.67947,1221.7648 C247.859024,1097.15545 273.43959,958.691384 297.869928,904.662811 C322.304639,850.651726 392.437988,665.031793 678.569458,666.994799 C1074.93047,686.895921 1100.76907,1100.4213 1098.93658,1148.5696 C1099.5926,1183.98677 1107.54799,1198.71588 1107.54799,1198.71588 C1107.54799,1198.71588 1119.27333,1207.73959 1146.90506,1202.60691 C1215.90567,1185.14971 2953.24554,1169.12214 2953.24554,1169.12214 C2953.24554,1169.12214 3108.06723,1168.57127 3166.2347,1190.58842 C3224.41966,1212.61431 3219.76189,1163.5479 3224.32345,1109.42315 C3228.885,1055.28527 3272.78613,679.328073 3627.38028,678.322524 C4016.49441,695.749122 4018.76425,1075.61922 4015.3748,1106.67756 C4011.97222,1137.74465 4000.01071,1179.28693 4086.30849,1159.41204 C4172.60628,1139.53277 4234.8236,1107.38145 4234.8236,1107.38145 C4234.8236,1107.38145 4290.69061,1032.42434 4302.90578,1005.18271 C4315.12095,977.932341 4307.77786,967.728207 4307.77786,967.728207 C4307.77786,967.728207 4322.65211,912.61539 4340.90707,867.763543 C4359.14454,822.942299 4356.62978,815.833506 4329.09864,789.326366 Z M3685.8189,243.615043 C3678.55016,253.67053 3599.4249,338.267787 3376.27612,353.57836 C3153.12734,368.880189 2272.78673,422.405988 2272.78673,422.405988 C2272.78673,422.405988 1973.27237,432.068 1700.99176,437.226902 L1465.84211,441.826195 C1401.03567,442.945415 1363.76039,443.767341 1340.93512,442.162835 C1340.93512,442.162835 1774.31339,116.469957 2238.984,71.8716829 C2644.09637,29.6298902 2988.96824,17.0299268 3553.33702,195.186939 C3683.24729,238.696598 3693.07453,233.546439 3685.8189,243.615043 Z" id="Shape" fill="#DBDADB" fill-rule="nonzero"></path>
                        <path d="M3186.75076,508.467848 C3190.22769,506.653488 3276.09249,506.81525 3298.40606,505.153909 C3320.71963,503.501311 3328.09334,499.649622 3335.4583,494.547555 C3342.81452,489.458604 3351.58775,494.259006 3370.20134,493.900506 C3388.81493,493.563866 3385.39486,509.753201 3369.37037,516.263037 C3353.35901,522.764128 3184.599,525.885701 3184.599,525.885701 C3184.599,525.885701 3167.08316,518.768165 3186.75076,508.467848 Z" id="Shape" fill="#797A7D" fill-rule="nonzero"></path>
                        <path d="M4014.4826,435.775415 C4015.04241,435.766671 4016.7262,435.744811 4019.37217,435.69672 C4053.47667,435.185201 4246.68452,432.452732 4249.41795,432.40464 C4252.37443,432.347805 4297.86314,499.33047 4284.62458,581.164652 C4235.60208,588.942354 4204.83893,573.793543 4140.18994,533.70275 C4075.51908,493.620701 4016.7262,435.744811 4016.7262,435.744811" id="Shape" fill="#F36C28" fill-rule="nonzero"></path>
                        <path d="M2949.72925,480.858976 C2938.44564,483.372848 3058.07382,467.305927 3208.05842,455.278689 C3358.0299,443.268939 4039.28906,421.409183 4173.3454,423.542695 C4131.41234,409.806024 4093.07866,402.601049 4037.13293,373.160329 C3967.60312,336.553982 3511.63576,378.052543 3458.76459,392.890945 C3405.90654,407.729348 3128.51769,441.222866 2949.72925,480.858976 Z" id="Shape" fill="#FFFFFF" fill-rule="nonzero"></path>
                        <g opacity="0.3" transform="translate(229.421687, 23.859756)" id="Shape" fill-rule="nonzero">
                            <path d="M4019.8257,566.905701 C4019.68137,567.91125 4005.86988,667.73164 3996.86486,704.709604 C3988.36278,739.641494 3976.76428,754.230695 3887.90363,768.885476 C3802.57239,782.971902 3709.34699,788.642323 3703.62646,787.203951 L3702.778,789.398671 L3701.51406,791.379165 C3702.19195,791.811988 3704.96475,792.01747 3709.43883,792.01747 C3735.68417,792.01747 3820.58243,784.773146 3888.67336,773.537232 C3975.83272,759.162256 3991.79598,745.464933 4001.43953,705.828823 C4010.50578,668.62789 4024.36101,568.562671 4024.48784,567.561494 L4019.8257,566.905701 Z" fill="#B6B8BA"></path>
                            <path d="M3523.86711,217.65675 C3518.06786,227.148256 3463.77967,305.26628 3235.71071,337.561884 C3233.11286,331.668494 3231.01358,326.518335 3229.53534,322.867756 C3228.36761,319.98664 3227.5454,317.997402 3227.12992,317.206079 L3222.96635,319.392055 C3223.34247,320.126543 3224.08596,321.971506 3225.17059,324.634024 C3226.57011,328.061634 3228.49445,332.809573 3230.87363,338.226421 C3213.03414,340.679085 3194.18876,342.860689 3174.20627,344.692537 C3008.68701,359.911299 2595.26063,386.6895 2237.90681,408.173268 C2239.25822,402.376061 2240.4653,397.374549 2241.46246,393.334866 L2241.86482,391.673524 L2237.27702,390.619884 L2236.88778,392.215646 C2235.8119,396.583226 2234.49548,402.039421 2232.99537,408.474933 C1958.76855,424.944073 1718.46693,438.256665 1650.06548,440.739933 C1487.29716,446.672671 1426.54058,444.932634 1426.1907,444.915146 L1426.02888,446.462817 L1425.99389,444.897659 L1424.52877,444.937006 L1423.2211,447.332835 L1423.94272,448.500146 C1424.16577,448.858646 1424.3582,449.164683 1426.09011,449.409512 L1426.09448,449.601878 L1426.09011,449.409512 C1428.62236,449.746152 1434.45223,449.94289 1448.53488,449.94289 C1455.80363,449.94289 1465.27661,449.894799 1477.63173,449.789872 C1510.10493,449.492579 1566.41366,448.513262 1650.24042,445.46164 C1718.54128,442.969628 1958.19125,429.705128 2231.89763,413.26222 C2217.06273,477.814079 2186.8069,627.509689 2180.23792,799.126262 C2172.99541,988.283104 2182.52963,1072.1721 2185.12311,1090.77913 C2037.9288,1093.62964 1912.72878,1095.94677 1910.02159,1096.00361 L868.990072,1119.01319 L869.095036,1123.72615 L1910.12218,1100.70346 C1915.97829,1100.58541 2497.37746,1089.80418 2631.06642,1086.10551 C2768.29792,1082.29754 2783.34273,1074.46301 2899.5421,946.377951 C3017.19783,816.66653 3251.34158,501.317689 3280.46905,460.116421 C3307.43164,422.02361 3301.90354,415.242713 3280.40345,399.556152 C3277.98928,397.789884 3275.3783,395.883713 3272.61425,393.758945 C3258.13799,382.601726 3245.8922,359.858835 3237.72689,342.021274 C3466.84549,309.214152 3521.98651,229.767055 3527.88198,220.109415 L3526.02761,218.640439 L3523.86711,217.65675 Z M3269.74087,397.483848 C3272.54428,399.647963 3275.18149,401.580366 3277.63502,403.368494 C3296.99211,417.481152 3302.19219,421.280378 3276.62912,457.410183 C3247.51914,498.572104 3013.58095,813.654256 2896.04767,943.225774 C2781.12537,1069.90306 2766.26424,1077.6589 2630.93522,1081.41004 C2559.58604,1083.38179 2360.71014,1087.36901 2189.87272,1090.68295 C2187.46293,1073.84656 2177.61819,990.678933 2184.9438,799.309884 C2191.54777,626.845152 2222.10975,476.585561 2236.78719,412.960555 C2594.53025,391.454927 3008.86633,364.61989 3174.63924,349.388012 C3195.19466,347.494957 3214.55175,345.243402 3232.86357,342.703299 C3241.22131,361.161677 3254.12312,385.465354 3269.74087,397.483848 Z" fill="#FFFFFF"></path>
                            <path d="M1712.14286,93.3097134 C2056.8704,-8.84967073 2400.94629,2.84967073 2585.78327,9.13216463 L2609.53134,9.92785976 C2613.40625,10.080878 3003.38196,27.2582744 3477.34625,193.156335 C3479.64671,194.19686 3481.94717,195.233012 3484.24763,196.269165 L3486.70116,199.68803 C3487.31782,199.233348 3487.86013,198.673738 3488.4593,198.166591 C3744.69357,313.651683 3971.78287,412.960555 3974.08333,413.974848 L3975.9683,409.65536 C3973.66784,408.649811 3747.60194,309.786878 3491.90124,194.568476 C3497.80546,187.241085 3501.11182,176.984488 3503.43852,169.643982 C3504.33508,166.841561 3505.45033,163.344 3506.01888,162.67072 L3504.3001,161.053098 L3502.60755,159.417988 C3501.3786,160.690226 3500.56076,163.169122 3498.95569,168.218726 C3496.63773,175.546116 3493.27452,185.968848 3487.46652,192.56175 C3484.67186,191.315744 3481.89031,190.056622 3479.09565,188.793128 C3004.24354,22.5715427 2613.60743,5.38103049 2609.7019,5.2280122 L2585.94071,4.43231707 C2400.84133,-1.86766463 2056.26686,-13.580122 1710.80457,88.8022317 C1353.63006,194.660287 1079.70939,418.180665 1076.9847,420.423476 L1079.97617,424.056567 C1082.69648,421.809384 1355.87366,198.896707 1712.14286,93.3097134 Z" fill="#FFFFFF"></path>
                        </g>
                        <g transform="translate(229.421687, 21.859756)" id="Shape" fill-rule="nonzero">
                            <path d="M4019.58516,566.470524 C4019.44083,567.467329 4005.62059,667.296463 3996.61557,704.265683 C3988.11349,739.206317 3976.52373,753.795518 3887.65434,768.450299 C3802.3231,782.52361 3709.10645,788.21589 3703.37717,786.764402 L3702.53746,788.946006 L3701.2604,790.9265 C3701.94704,791.359323 3704.71108,791.582293 3709.19392,791.582293 C3735.43925,791.582293 3820.33752,784.329226 3888.4197,773.084567 C3975.57906,758.718335 3991.54231,745.021012 4001.18587,705.384902 C4010.25212,668.170854 4024.0986,568.11875 4024.24293,567.117573 L4019.58516,566.470524 Z" fill="#A9ABAE"></path>
                            <path d="M3523.62657,217.217201 C3517.81857,226.708707 3463.53476,304.831104 3235.47017,337.126707 C3232.87231,331.228945 3230.77304,326.083159 3229.28605,322.432579 C3228.11833,319.551463 3227.30486,317.562226 3226.88063,316.770902 L3222.71706,318.952506 C3223.10193,319.686994 3223.8498,321.531957 3224.9213,324.198848 C3226.31207,327.626457 3228.2539,332.370024 3230.62434,337.786872 C3212.7936,340.239537 3193.95259,342.425512 3173.96572,344.25736 C3008.43335,359.476122 2595.01571,386.254323 2237.66189,407.738091 C2239.0133,401.940884 2240.22039,396.939372 2241.21754,392.899689 L2241.6199,391.229604 L2237.03211,390.184707 L2236.64724,391.767354 C2235.57136,396.143677 2234.25494,401.591128 2232.75483,408.035384 C1958.52364,424.504524 1718.22201,437.817116 1649.82494,440.300384 C1487.05661,446.233122 1426.30004,444.493085 1425.94578,444.475598 L1425.78396,446.023268 L1425.74898,444.449366 L1424.28386,444.488713 L1422.97618,446.893287 L1423.69781,448.051854 C1423.92523,448.419098 1424.11766,448.729506 1425.84519,448.96122 L1425.85394,449.162329 L1425.84519,448.96122 C1428.37745,449.310976 1434.21169,449.503341 1448.28996,449.503341 C1455.55871,449.503341 1465.0317,449.45525 1477.38682,449.350323 C1509.86001,449.05303 1566.16875,448.06497 1649.99988,445.013348 C1718.29636,442.530079 1957.95071,429.256835 2231.65271,412.827043 C2216.81782,477.365787 2186.57073,627.074512 2180.00175,798.682341 C2172.75924,987.847927 2182.29346,1071.74567 2184.88694,1090.34395 C2037.69263,1093.19446 1912.49261,1095.5116 1909.78542,1095.55969 L868.753904,1118.58238 L868.858867,1123.2866 L1909.88164,1100.26391 C1915.73775,1100.15898 2497.12817,1089.37775 2630.82588,1085.67908 C2768.03988,1081.87111 2783.10657,1074.03657 2899.28406,945.951518 C3016.96166,816.226982 3251.09666,500.882512 3280.23288,459.681244 C3307.18672,421.601549 3301.66737,414.820652 3280.1629,399.12972 C3277.74873,397.363451 3275.13776,395.45728 3272.36496,393.323768 C3257.8887,382.175293 3245.64292,359.436774 3237.4776,341.594841 C3466.5962,308.78772 3521.72847,229.340622 3527.64143,219.682982 L3525.78707,218.214006 L3523.62657,217.217201 Z M3269.47846,397.048671 C3272.29061,399.212787 3274.94095,401.145189 3277.38573,402.920201 C3296.74282,417.045976 3301.9429,420.840829 3276.37983,456.96189 C3247.28298,498.132555 3013.32292,813.205963 2895.79839,942.777482 C2780.88483,1069.46351 2766.01495,1077.21061 2630.6903,1080.97049 C2559.34112,1082.94224 2360.46523,1086.92946 2189.61906,1090.2434 C2187.20927,1073.40701 2177.37328,990.23064 2184.69888,798.870335 C2191.30286,626.392488 2221.86483,476.137268 2236.54228,412.521006 C2594.28096,391.015378 3008.62578,364.180341 3174.38558,348.948463 C3194.941,347.055409 3214.30683,344.799482 3232.6099,342.259378 C3240.98077,360.7265 3253.87383,385.030177 3269.47846,397.048671 Z" fill="#B6B8BA"></path>
                            <path d="M1711.89357,92.8745366 C2056.62548,-9.28484756 2400.69263,2.4144939 2585.53398,8.69261585 L2609.27767,9.49268293 C2613.16134,9.63695732 3003.1458,26.8187256 3477.09696,192.716787 C3479.40617,193.752939 3481.70663,194.797835 3483.99834,195.829616 L3486.45187,199.24411 C3487.06853,198.798171 3487.61959,198.238561 3488.20127,197.727043 C3744.44865,313.212134 3971.53795,412.521006 3973.83404,413.526555 L3975.71901,409.220183 C3973.4273,408.214634 3747.3614,309.351701 3491.64758,194.133299 C3497.54305,186.805909 3500.8669,176.549311 3503.19798,169.204433 C3504.0858,166.39764 3505.19666,162.908823 3505.76959,162.235543 L3504.05955,160.613549 L3502.36701,158.974067 C3501.13806,160.246305 3500.31584,162.725201 3498.7064,167.779177 C3496.38845,175.106567 3493.03398,185.529299 3487.21723,192.122201 C3484.42257,190.867451 3481.64102,189.612701 3478.84636,188.353579 C3003.99425,22.127622 2613.35814,4.94148171 2609.45261,4.78846341 L2585.6958,3.98839634 C2400.58766,-2.31158537 2056.01319,-14.0196707 1710.55965,88.3626829 C1353.38514,194.220738 1079.46447,417.741116 1076.73978,419.983927 L1079.73563,423.617018 C1082.44719,421.374207 1355.62875,198.452787 1711.89357,92.8745366 Z" fill="#B6B8BA"></path>
                        </g>
                        <g transform="translate(3252.506024, 683.024390)" id="Shape" fill-rule="nonzero">
                            <path d="M748.401253,364.636201 C744.613807,159.950189 574.174373,-2.8787622 367.72359,0.955439024 C161.268434,4.77215244 -3.02624096,173.796159 0.769951807,378.486543 C4.55739759,583.172555 175.009952,745.98839 381.465108,742.171677 C587.902771,738.337476 752.197446,569.317841 748.401253,364.636201 Z" fill="#222223"></path>
                            <path d="M655.250205,366.354378 C652.38994,212.684665 524.430253,90.4317927 369.42488,93.3085366 C214.428253,96.1852805 91.0869759,223.081165 93.938494,376.750878 C96.790012,530.429335 224.745325,652.682207 379.746325,649.809835 C534.742952,646.933091 658.092976,520.024091 655.250205,366.354378 Z" fill="url(#linearGradient-5)"></path>
                            <path d="M298.84106,358.240037 C304.552843,355.253994 308.493361,334.290488 295.311651,323.723482 C282.138687,313.156476 216.523157,273.297396 198.443133,270.022805 C180.363108,266.765701 157.275434,265.751409 158.657458,262.122689 C159.79894,259.079811 159.169157,241.351549 160.192554,234.872317 C154.489518,248.079982 121.583349,314.503037 117.721554,347.909116 C116.851229,355.385152 204.404205,357.837817 236.133904,358.690348 C267.867976,359.542878 293.129277,361.234823 298.84106,358.240037 Z M160.997277,232.528951 C160.660518,232.769409 160.398108,233.630683 160.196928,234.867945 C160.909807,233.232835 161.229072,232.362817 160.997277,232.528951 Z M444.307843,350.501683 L444.355952,353.378427 C463.153229,355.91853 472.118892,373.039091 507.452349,373.830415 C542.794554,374.621738 618.700916,347.275183 618.700916,347.275183 C618.700916,347.275183 618.700916,347.275183 631.948229,362.161677 C633.649518,337.626287 607.596614,254.524238 605.440482,254.554841 C603.275602,254.594189 579.746205,268.002963 549.02241,282.98564 C518.302988,297.968317 451.471627,348.202037 444.307843,350.501683 Z M381.368892,299.061305 C399.19088,288.656061 409.761614,276.204744 415.600229,240.791939 C421.438843,205.366018 427.640458,151.206287 427.640458,151.206287 C427.640458,151.206287 425.195675,136.127427 431.642205,133.836524 C438.088735,131.558738 452.525639,132.726049 454.690518,132.686701 C456.855398,132.647354 391.506651,107.906482 324.828361,126.456671 C317.870133,128.380329 362.960855,278.517506 365.27006,286.387018 C367.579265,294.287134 363.52941,309.484037 381.368892,299.061305 Z M320.485482,437.105665 C312.503855,434.373195 296.112,444.765323 276.265084,462.423634 C256.413795,480.081945 203.555747,545.919159 203.555747,545.919159 C215.412289,563.713 274.467578,598.653634 274.467578,598.653634 C274.467578,598.653634 325.96547,460.77978 331.524181,449.159134 C337.078518,437.534116 328.467108,439.842506 320.485482,437.105665 Z M465.116928,383.986457 C446.232181,376.414238 410.653807,362.655707 414.834867,355.372037 C419.037795,348.088366 423.909867,338.631835 440.367325,331.837823 C456.816036,325.056927 465.165036,309.038098 471.515349,301.715079 C477.865663,294.392061 572.123205,206.909317 572.123205,206.909317 C572.123205,206.909317 516.409265,156.767409 494.65988,149.964652 C464.81953,212.492299 419.483892,294.750561 403.896759,309.462177 C388.318373,324.156305 367.137542,348.324451 361.771265,331.138311 C356.409361,313.943427 345.659313,278.827915 324.351651,256.88072 C303.035241,234.942268 276.400663,159.058311 276.400663,159.058311 L296.798639,131.287677 C296.798639,131.287677 220.310602,166.573695 191.327458,197.378463 C233.103072,234.076622 312.936831,302.484543 323.634398,334.718939 C334.31447,366.944591 342.383566,374.009665 326.525277,374.298213 C310.675735,374.586762 270.360867,377.49411 270.360867,377.49411 C270.360867,377.49411 234.66441,396.175457 192.162795,396.971152 C149.630566,397.753732 120.922952,404.053713 120.95794,406.204713 C120.997301,408.360085 149.661181,477.017207 155.670361,490.579 C214.830614,454.186878 274.865566,425.699244 286.29788,420.435415 C297.730193,415.180329 321.386422,407.546902 340.161831,410.069518 C358.959108,412.600878 368.300892,410.987628 364.872072,420.426671 C363.297614,424.763646 346.289096,467.608768 348.143458,490.640207 C350.019687,513.662902 337.11788,595.322207 335.727108,598.229555 C334.336337,601.145646 330.325843,617.794037 330.325843,617.794037 L417.581422,619.792018 C417.581422,619.792018 386.319687,488.497951 391.091169,473.996189 C395.867024,459.485683 403.520639,405.308463 410.024024,405.898677 C416.518663,406.497634 452.350699,433.944744 456.697952,436.030165 C461.067072,438.098098 478.259277,432.021085 495.770747,443.217652 C513.27347,454.422963 588.204542,491.230421 594.03441,494.002238 C599.84241,496.774055 630.417506,434.959037 632.980373,417.628622 C595.394566,411.84453 483.988554,391.567421 465.116928,383.986457 Z M425.589289,434.692348 C423.472518,435.378744 404.946398,452.477445 417.975036,481.23614 C431.012422,510.003579 484.753916,592.003896 484.753916,592.003896 C484.753916,592.003896 530.833048,573.746628 563.822313,547.711659 C524.404012,515.85325 456.737313,453.754055 445.431831,445.928262 C445.431831,445.928262 430.037133,433.26272 425.589289,434.692348 Z" fill="#414042"></path>
                        </g>
                    </g>
                </g>
            </g>
            <rect id="Rectangle-path-Copy-4" stroke="#110000" stroke-width="100" mask="url(#mask-2)" fill-rule="nonzero" x="50.6" y="50.1" width="2908.5" height="4537.4"></rect>
            <text id="Vivre-sans-voiture" mask="url(#mask-2)" font-family="Oswald-Regular, Oswald" font-size="230" font-weight="normal" letter-spacing="-5.19999981" fill="#000000">
                <tspan x="754" y="3934">Vivre sans voiture</tspan>
            </text>
            <text id="Arthur-Lacoste" mask="url(#mask-2)" font-family="Oswald-Regular, Oswald" font-size="100" font-weight="normal" letter-spacing="-0.200000003" fill="#D6742E">
                <tspan x="1221" y="4119">Arthur Lacost</tspan>
                <tspan x="1741.25156" y="4119">e</tspan>
            </text>
            <rect id="Rectangle-path-Copy-5" stroke="#110000" stroke-width="100" fill-rule="nonzero" x="50.6" y="50.1" width="2908.5" height="4537.4"></rect>
        </g>
    </g>
</svg>