<?xml version="1.0" encoding="UTF-8"?>
<svg width="254px" height="226px" viewBox="0 0 254 226" version="1.1" xmlns="http://www.w3.org/2000/svg" xmlns:xlink="http://www.w3.org/1999/xlink">
    <!-- Generator: Sketch 42 (36781) - http://www.bohemiancoding.com/sketch -->
    <title>Group</title>
    <desc>Created with Sketch.</desc>
    <defs></defs>
    <g id="Page-1" stroke="none" stroke-width="1" fill="none" fill-rule="evenodd">
        <g id="Group" transform="translate(-23.000000, -37.000000)">
            <g id="Page-1" transform="translate(147.870590, 139.482963) scale(-1, 1) rotate(-15.000000) translate(-147.870590, -139.482963) translate(24.870590, 28.982963)">
                <polygon id="Fill-1" fill="#644633" points="101.4887 206.6195 79.9907 212.6695 63.0607 124.3435 84.9167 120.1545"></polygon>
                <polygon id="Fill-2" fill="#644633" points="79.9907 212.6693 76.2057 192.5083 163.8877 172.5133 168.8357 194.2093"></polygon>
                <g id="Group-38" transform="translate(0.000000, 0.348000)">
                    <g id="Group-5" fill="#EA8C2D">
                        <path d="M0.000399999999,71.314 C0.000399999999,71.314 40.0554,-11.081 109.2954,2.075 C178.5364,15.231 207.4554,38.072 223.8084,59.887 C239.6304,80.994 264.7744,126.405 218.7254,196.437 C215.8074,200.875 210.8544,203.565 205.5434,203.565 L185.5354,203.565 C167.6344,203.565 152.0934,191.231 148.0264,173.798 L144.0664,156.818 C140.4454,141.291 127.2234,129.52 111.3054,128.62 C110.7324,128.588 110.1574,128.568 109.5804,128.563 L77.1694,132.38 C65.8494,133.713 55.3974,126.143 53.1354,114.972 L52.7854,113.25 C51.6714,107.746 49.4124,102.527 46.0984,97.994 C40.1444,89.849 32.2104,83.276 22.9784,78.941 L0.000399999999,71.314 Z" id="Fill-3"></path>
                    </g>
                    <path d="M167.5571,199.0865 C172.9641,201.9465 179.0911,203.5655 185.5361,203.5655 L205.5431,203.5655 C210.8551,203.5655 215.8071,200.8755 218.7251,196.4365 C255.0141,141.2495 247.0891,101.3565 234.3581,76.5925 C234.3581,76.5925 214.5791,172.8515 167.5571,199.0865" id="Fill-6" fill="#DC842A"></path>
                    <path d="M52.7397,56.7935 C110.1277,32.1685 142.6867,34.6295 165.5057,42.5595 C169.5917,43.9795 174.3247,45.8545 179.3307,48.4355 C166.8307,37.2605 146.7927,26.7135 111.0867,19.9285 C67.5217,11.6515 40.8397,58.6265 36.8087,66.2765 C41.4217,62.6055 46.6947,59.3875 52.7397,56.7935" id="Fill-8" fill="#F39536"></path>
                    <path d="M69.6941,121.4235 C66.8261,121.4235 64.4991,119.0985 64.4991,116.2295 C64.4991,113.3605 66.8261,111.0355 69.6941,111.0355 C72.5631,111.0355 74.8891,113.3605 74.8891,116.2295 C74.8891,119.0985 72.5631,121.4235 69.6941,121.4235 Z" id="Fill-10" fill="#4A4A4A"></path>
                    <path d="M177.9458,181.1607 C177.9458,184.0297 175.6208,186.3557 172.7518,186.3557 C169.8828,186.3557 167.5568,184.0297 167.5568,181.1607 C167.5568,178.2917 169.8828,175.9667 172.7518,175.9667 C175.6208,175.9667 177.9458,178.2917 177.9458,181.1607" id="Fill-12" fill="#4A4A4A"></path>
                    <g id="Group-16" transform="translate(7.000000, -0.000000)" fill="#F39536">
                        <path d="M101.9155,6.2637 C173.7705,19.9167 203.7825,43.6207 220.7525,66.2597 C222.0865,68.0377 223.4835,69.9937 224.8995,72.1057 C222.1865,67.3977 219.3755,63.3127 216.8085,59.8867 C200.4555,38.0727 171.5365,15.2307 102.2955,2.0747 C50.0305,-7.8553 14.4005,36.6497 0.0685,59.0727 C17.0745,34.7417 52.2615,-3.1703 101.9155,6.2637" id="Fill-14"></path>
                    </g>
                    <path d="M188.1323,203.565 C170.2313,203.565 154.6903,191.232 150.6243,173.798 L146.6643,156.817 C143.0433,141.291 129.8203,129.519 113.9023,128.62 C113.3293,128.587 112.7543,128.568 112.1773,128.563 L111.5143,128.641 C127.3383,129.632 140.4623,141.359 144.0673,156.818 L148.0273,173.798 C152.0933,191.232 167.6343,203.565 185.5353,203.565 L205.5433,203.565 L205.5463,203.565 L188.1323,203.565 Z" id="Fill-19" fill="#FEFEFE"></path>
                    <path d="M75.8706,136.9405 L108.2816,133.1235 C108.8586,133.1295 109.4336,133.1485 110.0066,133.1805 C125.9246,134.0805 139.1466,145.8515 142.7676,161.3785 L146.7286,178.3585 C150.7946,195.7925 166.3356,208.1265 184.2366,208.1265 L199.5006,208.1265 L202.4486,203.5655 L185.5356,203.5655 C167.6346,203.5655 152.0936,191.2315 148.0266,173.7975 L144.0666,156.8175 C140.4456,141.2905 127.2236,129.5195 111.3056,128.6205 C110.7326,128.5875 110.1576,128.5685 109.5806,128.5635 L77.1696,132.3795 C70.7716,133.1325 64.6536,131.0405 60.1326,127.0635 L61.1116,133.3505 C65.3146,136.1735 70.4866,137.5745 75.8706,136.9405" id="Fill-21" fill="#4A4A4A"></path>
                    <path d="M70.9926,116.2295 C70.9926,117.6645 69.8296,118.8265 68.3956,118.8265 C66.9616,118.8265 65.7986,117.6645 65.7986,116.2295 C65.7986,114.7945 66.9616,113.6325 68.3956,113.6325 C69.8296,113.6325 70.9926,114.7945 70.9926,116.2295" id="Fill-23" fill="#FEFEFE"></path>
                    <path d="M173.976,181.1607 C173.976,182.5957 172.813,183.7577 171.378,183.7577 C169.944,183.7577 168.782,182.5957 168.782,181.1607 C168.782,179.7267 169.944,178.5637 171.378,178.5637 C172.813,178.5637 173.976,179.7267 173.976,181.1607" id="Fill-25" fill="#FEFEFE"></path>
                    <polygon id="Fill-27" fill="#35251A" points="96.9809 182.7549 76.2059 192.1599 97.8379 187.2269"></polygon>
                    <g id="Group-31" transform="translate(47.000000, 191.000000)" fill="#35251A">
                        <path d="M2.061,5.3794 L28.703,0.0484 C30.018,-0.2146 31.293,0.6504 31.537,1.9694 L34.871,20.0954 C35.109,21.3944 34.254,22.6424 32.957,22.8894 L6.334,27.9574 C5.029,28.2054 3.77,27.3464 3.525,26.0404 L0.171,8.1774 C-0.071,6.8854 0.771,5.6374 2.061,5.3794" id="Fill-29"></path>
                    </g>
                    <path d="M71.5698,193.3638 L66.4878,194.2768 C65.3818,194.4758 64.6338,195.5198 64.8028,196.6318 L67.2168,212.5388 C67.3888,213.6758 68.4538,214.4558 69.5898,214.2788 L75.7388,213.3178 C76.9208,213.1338 77.7028,211.9898 77.4458,210.8218 L73.9648,194.9618 C73.7248,193.8728 72.6678,193.1668 71.5698,193.3638" id="Fill-32" fill="#644633"></path>
                    <path d="M58.4135,195.961 L53.3315,196.874 C52.2255,197.073 51.4775,198.117 51.6465,199.229 L54.0605,215.136 C54.2325,216.273 55.2975,217.053 56.4335,216.876 L62.5825,215.915 C63.7645,215.731 64.5465,214.587 64.2895,213.419 L60.8085,197.559 C60.5685,196.47 59.5115,195.764 58.4135,195.961" id="Fill-34" fill="#644633"></path>
                    <path d="M47.309,199.9117 L45.538,200.3147 C41.01,201.3447 38.092,205.7537 38.914,210.3237 C39.773,215.0947 44.37,218.2407 49.127,217.3127 L50.525,217.0407 L47.309,199.9117 Z" id="Fill-36" fill="#644633"></path>
                </g>
            </g>
        </g>
    </g>
</svg>