<?xml version="1.0" encoding="UTF-8"?>
<svg width="285px" height="284px" viewBox="0 0 285 284" version="1.1" xmlns="http://www.w3.org/2000/svg" xmlns:xlink="http://www.w3.org/1999/xlink">
    <!-- Generator: Sketch 47 (45396) - http://www.bohemiancoding.com/sketch -->
    <title>icon-atom</title>
    <desc>Created with Sketch.</desc>
    <defs></defs>
    <g id="Page-1" stroke="none" stroke-width="1" fill="none" fill-rule="evenodd">
        <g id="icon-atom" fill-rule="nonzero">
            <g id="Group" fill="#F6F4DE">
                <circle id="Oval" cx="142.5" cy="141.6" r="141.6"></circle>
            </g>
            <g id="casque">
                <g id="Page-1" transform="translate(136.514852, 128.379039) scale(-1, 1) rotate(-15.000000) translate(-136.514852, -128.379039) translate(23.014852, 26.879039)">
                    <polygon id="Fill-1" fill="#644633" points="93.2376623 189.782036 73.4874672 195.339276 57.93389 114.207249 78.0129794 110.359434"></polygon>
                    <polygon id="Fill-2" fill="#644633" points="73.4874672 195.339092 70.0101908 176.820165 150.563573 158.453717 155.109296 178.382622"></polygon>
                    <g id="Group-38" transform="translate(0.000076, 0.310930)">
                        <g id="Group-5" fill="#EA8C2D">
                            <path d="M0.000367479674,65.5056199 C0.000367479674,65.5056199 36.7988634,-10.1784751 100.409595,1.90599548 C164.021246,13.9904661 190.589107,34.9711131 205.612595,55.0093258 C220.148254,74.3972036 243.248026,116.10957 200.942847,180.437606 C198.262083,184.51414 193.711766,186.985045 188.832554,186.985045 L170.451221,186.985045 C154.005587,186.985045 139.728083,175.655624 135.991733,159.642507 L132.353685,144.045493 C129.027075,129.783136 116.880034,118.97086 102.25618,118.144163 C101.729766,118.114769 101.201514,118.096398 100.671424,118.091805 L70.895465,121.597919 C60.4957902,122.822348 50.8935463,115.86891 48.8154488,105.607765 L48.4939041,104.026018 C47.4704732,98.9703077 45.3951317,94.1763846 42.3505626,90.0125882 C36.8806276,82.5309819 29.5916683,76.4933394 21.1102374,72.5114163 L0.000367479674,65.5056199 Z" id="Fill-3"></path>
                        </g>
                        <path d="M153.934572,182.87131 C158.901978,185.498369 164.530848,186.985505 170.451864,186.985505 L188.832279,186.985505 C193.712409,186.985505 198.261807,184.5146 200.942572,180.437147 C234.281246,129.745016 227.000555,93.1012195 215.304596,70.3541968 C215.304596,70.3541968 197.133645,158.773097 153.934572,182.87131" id="Fill-6" fill="#DC842A"></path>
                        <path d="M48.4519195,52.1677851 C101.174228,29.5484412 131.086155,31.8089977 152.049952,39.0931154 C155.803757,40.3974593 160.15196,42.1197443 164.750968,44.4905271 C153.267228,34.2257081 134.858334,24.5377398 102.055261,18.3053643 C62.0321309,10.702509 37.5193992,53.851491 33.8161228,60.878414 C38.0540821,57.5064095 42.8983829,54.550509 48.4519195,52.1677851" id="Fill-8" fill="#F39536"></path>
                        <path d="M64.027913,111.533803 C61.3930837,111.533803 59.2552707,109.39817 59.2552707,106.762844 C59.2552707,104.127518 61.3930837,101.991885 64.027913,101.991885 C66.663661,101.991885 68.8005553,104.127518 68.8005553,106.762844 C68.8005553,109.39817 66.663661,111.533803 64.027913,111.533803 Z" id="Fill-10" fill="#4A4A4A"></path>
                        <path d="M163.478662,166.40553 C163.478662,169.040856 161.342686,171.177408 158.706938,171.177408 C156.07119,171.177408 153.934296,169.040856 153.934296,166.40553 C153.934296,163.770204 156.07119,161.634571 158.706938,161.634571 C161.342686,161.634571 163.478662,163.770204 163.478662,166.40553" id="Fill-12" fill="#4A4A4A"></path>
                        <g id="Group-16" transform="translate(6.430894, 0.000000)" fill="#F39536">
                            <path d="M93.629687,5.75353439 C159.642817,18.2945253 187.214817,40.0678828 202.805142,60.8629824 C204.030687,62.4961679 205.31411,64.2928557 206.614988,66.2328376 C204.122557,61.9082946 201.540093,58.1560095 199.181793,55.0090502 C184.158305,34.9717561 157.590443,13.9901905 93.9787927,1.90571991 C45.9629797,-7.21550181 13.2297276,33.6646566 0.0629308943,54.2613489 C15.6863293,31.9120593 48.0125976,-2.91208552 93.629687,5.75353439" id="Fill-14"></path>
                        </g>
                        <path d="M172.836991,186.985045 C156.391357,186.985045 142.113853,175.656543 138.378422,159.642507 L134.740373,144.044575 C131.413763,129.783136 119.265804,118.969941 104.64195,118.144163 C104.115536,118.113851 103.587284,118.096398 103.057194,118.091805 L102.448097,118.163452 C116.985593,119.073738 129.042601,129.845597 132.354511,144.045493 L135.99256,159.642507 C139.727991,175.656543 154.005495,186.985045 170.451129,186.985045 L188.832463,186.985045 L188.835219,186.985045 L172.836991,186.985045 Z" id="Fill-19" fill="#FEFEFE"></path>
                        <path d="M69.7022585,125.786975 L99.4782179,122.280862 C100.008307,122.286373 100.536559,122.303826 101.062974,122.333219 C115.686828,123.159916 127.833868,133.972192 131.160478,148.23455 L134.799446,163.831563 C138.534876,179.8456 152.81238,191.17502 169.258015,191.17502 L183.281039,191.17502 L185.989364,186.985505 L170.451405,186.985505 C154.005771,186.985505 139.728267,175.656084 135.991917,159.642048 L132.353868,144.045034 C129.027259,129.782676 116.880218,118.9704 102.256364,118.144622 C101.72995,118.11431 101.201698,118.096857 100.671608,118.092265 L70.8956488,121.597459 C65.0178114,122.289129 59.3972098,120.367518 55.2437707,116.714437 L56.1431772,122.489373 C60.0044699,125.082446 64.7559821,126.369337 69.7022585,125.786975" id="Fill-21" fill="#4A4A4A"></path>
                        <path d="M65.2208439,106.762844 C65.2208439,108.080966 64.1523967,109.148324 62.8349821,109.148324 C61.5175675,109.148324 60.4491203,108.080966 60.4491203,106.762844 C60.4491203,105.444722 61.5175675,104.377364 62.8349821,104.377364 C64.1523967,104.377364 65.2208439,105.444722 65.2208439,106.762844" id="Fill-23" fill="#FEFEFE"></path>
                        <path d="M159.83161,166.40553 C159.83161,167.723652 158.763163,168.79101 157.444829,168.79101 C156.127415,168.79101 155.059886,167.723652 155.059886,166.40553 C155.059886,165.088326 156.127415,164.02005 157.444829,164.02005 C158.763163,164.02005 159.83161,165.088326 159.83161,166.40553" id="Fill-25" fill="#FEFEFE"></path>
                        <polygon id="Fill-27" fill="#35251A" points="89.096274 167.869886 70.0102984 176.508867 89.8835992 171.97765"></polygon>
                        <g id="Group-31" transform="translate(43.178862, 175.443439)" fill="#35251A">
                            <path d="M1.89343902,4.94125882 L26.3694228,0.0444579186 C27.5775122,-0.197121267 28.7488537,0.597426244 28.9730163,1.80899638 L32.0359593,18.4586706 C32.2546098,19.6518697 31.469122,20.7982226 30.2775691,21.025105 L5.81904065,25.6803267 C4.62013821,25.9081276 3.46349593,25.1190914 3.23841463,23.9194624 L0.157097561,7.51136742 C-0.0652276423,6.32459819 0.708317073,5.17824525 1.89343902,4.94125882" id="Fill-29"></path>
                        </g>
                        <path d="M65.7511171,177.614712 L61.0822878,178.45335 C60.0662065,178.636142 59.3790195,179.59511 59.5342797,180.61654 L61.7520195,195.227948 C61.9100358,196.272341 62.8884504,196.988812 63.9320927,196.826228 L69.581174,195.9435 C70.6670764,195.774486 71.3854992,194.723662 71.1493935,193.650794 L67.9514016,179.082558 C67.7309138,178.082255 66.7598488,177.433757 65.7511171,177.614712" id="Fill-32" fill="#644633"></path>
                        <path d="M53.664435,180.000376 L48.9956057,180.839014 C47.9795244,181.021805 47.2923374,181.980774 47.4475976,183.002204 L49.6653374,197.613611 C49.8233537,198.658005 50.8017683,199.374475 51.8454106,199.211891 L57.4944919,198.329163 C58.5803943,198.160149 59.2988171,197.109326 59.0627114,196.036457 L55.8647195,181.468222 C55.6442317,180.467919 54.6731667,179.819421 53.664435,180.000376" id="Fill-34" fill="#644633"></path>
                        <path d="M43.4627398,183.629299 L41.8357236,183.999476 C37.6758537,184.945584 34.9950894,188.99548 35.7502602,193.193263 C36.5394228,197.575675 40.7626829,200.465439 45.132935,199.613023 L46.4172764,199.363177 L43.4627398,183.629299 Z" id="Fill-36" fill="#644633"></path>
                    </g>
                </g>
            </g>
        </g>
    </g>
</svg>