<?xml version="1.0" encoding="UTF-8"?>
<svg width="934px" height="934px" viewBox="0 0 934 934" version="1.1" xmlns="http://www.w3.org/2000/svg" xmlns:xlink="http://www.w3.org/1999/xlink">
    <!-- Generator: Sketch 47 (45396) - http://www.bohemiancoding.com/sketch -->
    <title>wheel</title>
    <desc>Created with Sketch.</desc>
    <defs>
        <polygon id="path-1" points="0.12135257 933.188407 933.546387 933.188407 933.546387 0.439930996 0.12135257 0.439930996"></polygon>
    </defs>
    <g id="Page-1" stroke="none" stroke-width="1" fill="none" fill-rule="evenodd">
        <g id="wheel" transform="translate(467.500000, 467.000000) scale(-1, 1) translate(-467.500000, -467.000000) ">
            <polygon id="Fill-1" fill="#D1D1D1" fill-rule="nonzero" points="841.054381 319.474024 836.828039 309.273395 486.252312 449.739455 626.736269 99.2255451 616.538015 95 467.984023 442.173881 319.425731 95 309.231777 99.2255451 449.715734 449.739455 99.1400071 309.273395 94.9093656 319.474024 442.144433 468.004299 94.9093656 616.525976 99.1400071 626.730904 449.715734 486.269142 309.231777 836.778754 319.425731 841 467.984023 493.834716 616.538015 841 626.736269 836.778754 486.252312 486.269142 836.828039 626.730904 841.054381 616.525976 493.810714 468.004299"></polygon>
            <g id="Group-24" transform="translate(0.963746, 0.000000)">
                <g id="Fill-22-Clipped">
                    <mask id="mask-2" fill="white">
                        <use xlink:href="#path-1"></use>
                    </mask>
                    <g id="path-1"></g>
                    <path d="M466.83172,28.9225388 C225.207995,28.9225388 28.6248169,225.357577 28.6248169,466.813095 C28.6248169,708.264317 225.207995,904.707948 466.83172,904.707948 C708.464045,904.707948 905.042923,708.264317 905.042923,466.813095 C905.042923,225.357577 708.464045,28.9225388 466.83172,28.9225388 M466.83172,933.190556 C209.483576,933.190556 0.12135257,723.972932 0.12135257,466.813095 C0.12135257,209.653258 209.483576,0.439930996 466.83172,0.439930996 C724.184163,0.439930996 933.546387,209.653258 933.546387,466.813095 C933.546387,723.972932 724.184163,933.190556 466.83172,933.190556" id="Fill-22" fill="#656565" fill-rule="nonzero" mask="url(#mask-2)"></path>
                </g>
            </g>
            <path d="M467.525914,39.7989539 C231.537377,39.7989539 39.5506369,231.661713 39.5506369,467.502148 C39.5506369,703.338287 231.537377,895.205341 467.525914,895.205341 C703.51445,895.205341 895.505488,703.338287 895.505488,467.502148 C895.505488,231.661713 703.51445,39.7989539 467.525914,39.7989539 M467.525914,913 C221.720997,913 21.7401813,713.148328 21.7401813,467.502148 C21.7401813,221.851672 221.720997,22 467.525914,22 C713.335128,22 913.320242,221.851672 913.320242,467.502148 C913.320242,713.148328 713.335128,913 467.525914,913" id="Fill-25" fill="#D1D1D1" fill-rule="nonzero"></path>
            <path d="M467.525913,79.3692155 C253.429375,79.3692155 79.2462266,253.481269 79.2462266,467.5 C79.2462266,681.523028 253.429375,855.635082 467.525913,855.635082 C681.631048,855.635082 855.809898,681.523028 855.809898,467.5 C855.809898,253.481269 681.631048,79.3692155 467.525913,79.3692155 M467.525913,877 C241.650949,877 57.8731118,693.301234 57.8731118,467.5 C57.8731118,241.703063 241.650949,58 467.525913,58 C693.418071,58 877.187311,241.703063 877.187311,467.5 C877.187311,693.301234 693.418071,877 467.525913,877" id="Fill-27" fill="#F58434" fill-rule="nonzero"></path>
            <path d="M458.94864,465.002086 C458.94864,467.763872 461.169655,470 463.916918,470 C466.660038,470 468.885196,467.763872 468.885196,465.002086 C468.885196,462.244472 466.660038,460 463.916918,460 C461.169655,460 458.94864,462.244472 458.94864,465.002086" id="Fill-43" fill="#4E4E4E" fill-rule="nonzero"></path>
        </g>
    </g>
</svg>